<svg version="1.2" baseProfile="tiny-ps" xmlns="http://www.w3.org/2000/svg" viewBox="0 0 371 253" width="371" height="253">
	<title>freepik--Character--inject-5</title>
	<style>
		tspan { white-space:pre }
		.shp0 { fill: #ffffff } 
		.shp1 { fill: #c76e55 } 
		.shp2 { opacity: 0.502;fill: #ffffff } 
		.shp3 { fill: none;stroke: #263238;stroke-linecap:round;stroke-linejoin:round;stroke-width: 1.113 } 
		.shp4 { fill: #c76e55;stroke: #263238;stroke-linecap:round;stroke-linejoin:round;stroke-width: 1.113 } 
		.shp5 { fill: #ffffff;stroke: #263238;stroke-linecap:round;stroke-linejoin:round;stroke-width: 1.113 } 
		.shp6 { fill: #263238 } 
		.shp7 { fill: none;stroke: #263238;stroke-width: 1.113 } 
		.shp8 { fill: #c76e55;stroke: #263238;stroke-width: 1.113 } 
		.shp9 { fill: none;stroke: #263238;stroke-linecap:round;stroke-linejoin:round;stroke-width: 3.34 } 
		.shp10 { fill: none;stroke: #263238;stroke-linecap:round;stroke-width: 1.113 } 
	</style>
	<g id="freepik--Character--inject-5">
		<path id="Layer" class="shp0" d="M174.15 252.28C151.89 252.28 138.51 232.53 133.76 215.16L133.6 214.55C133.09 212.85 133.29 211.01 134.16 209.46C135.03 207.91 136.5 206.79 138.22 206.34C139.94 205.89 141.76 206.16 143.28 207.09C144.8 208.02 145.87 209.52 146.25 211.26L146.37 211.71C149.98 224.93 159.81 240.04 175.58 239.17C177.06 239.12 178.53 238.91 179.96 238.55C181.4 238.2 182.79 237.69 184.12 237.04C185.45 236.39 186.71 235.61 187.88 234.7C189.04 233.78 190.11 232.75 191.06 231.62C199.71 221.7 203.58 200.13 202.72 189.25C202.56 187.84 202.97 186.42 203.87 185.32C204.77 184.23 206.08 183.54 207.5 183.43C208.92 183.32 210.32 183.79 211.38 184.73C212.44 185.67 213.08 187 213.14 188.42C214.14 200.53 212.82 226.56 200.91 240.21C199.39 242 197.69 243.63 195.83 245.07C193.98 246.51 191.98 247.75 189.87 248.78C187.76 249.81 185.55 250.62 183.27 251.2C181 251.77 178.67 252.11 176.32 252.21C175.59 252.26 174.86 252.28 174.15 252.28Z" />
		<g id="Layer">
			<path id="Layer" class="shp1" d="M207.51 183.62C206.83 183.68 206.16 183.87 205.55 184.18C204.94 184.49 204.39 184.92 203.95 185.44C203.51 185.97 203.17 186.57 202.96 187.22C202.75 187.88 202.67 188.57 202.72 189.25C203.14 194.56 202.43 202.41 200.59 210.25C201.25 210.22 201.9 210.22 202.56 210.25C203.21 210.28 203.87 210.33 204.52 210.42C205.17 210.5 205.82 210.61 206.46 210.75C207.1 210.89 207.73 211.06 208.36 211.25C208.21 213.12 207.94 214.98 207.54 216.81C207.14 218.64 206.61 220.45 205.97 222.21C205.32 223.97 204.56 225.68 203.68 227.34C202.8 229 201.81 230.6 200.72 232.12C191.01 245.61 176.45 249.92 165.12 248.3C160.05 247.58 154.24 244.92 149.35 242.19C150.99 243.79 152.78 245.23 154.69 246.48C156.61 247.74 158.64 248.8 160.76 249.67C162.88 250.53 165.08 251.19 167.33 251.63C169.58 252.07 171.86 252.3 174.15 252.3C174.86 252.3 175.59 252.3 176.32 252.24C178.67 252.14 181 251.8 183.27 251.23C185.55 250.65 187.76 249.84 189.87 248.81C191.98 247.78 193.98 246.54 195.83 245.1C197.69 243.66 199.39 242.03 200.91 240.24C212.82 226.59 214.1 200.56 213.14 188.45C213.09 187.76 212.91 187.09 212.6 186.47C212.28 185.86 211.86 185.31 211.33 184.86C210.81 184.41 210.2 184.07 209.55 183.86C208.89 183.64 208.2 183.56 207.51 183.62L207.51 183.62Z" />
			<path id="Layer" class="shp2" d="M207.51 183.62C206.83 183.68 206.16 183.87 205.55 184.18C204.94 184.49 204.39 184.92 203.95 185.44C203.51 185.97 203.17 186.57 202.96 187.22C202.75 187.88 202.67 188.57 202.72 189.25C203.14 194.56 202.43 202.41 200.59 210.25C201.25 210.22 201.9 210.22 202.56 210.25C203.21 210.28 203.87 210.33 204.52 210.42C205.17 210.5 205.82 210.61 206.46 210.75C207.1 210.89 207.73 211.06 208.36 211.25C208.21 213.12 207.94 214.98 207.54 216.81C207.14 218.64 206.61 220.45 205.97 222.21C205.32 223.97 204.56 225.68 203.68 227.34C202.8 229 201.81 230.6 200.72 232.12C191.01 245.61 176.45 249.92 165.12 248.3C160.05 247.58 154.24 244.92 149.35 242.19C150.99 243.79 152.78 245.23 154.69 246.48C156.61 247.74 158.64 248.8 160.76 249.67C162.88 250.53 165.08 251.19 167.33 251.63C169.58 252.07 171.86 252.3 174.15 252.3C174.86 252.3 175.59 252.3 176.32 252.24C178.67 252.14 181 251.8 183.27 251.23C185.55 250.65 187.76 249.84 189.87 248.81C191.98 247.78 193.98 246.54 195.83 245.1C197.69 243.66 199.39 242.03 200.91 240.24C212.82 226.59 214.1 200.56 213.14 188.45C213.09 187.76 212.91 187.09 212.6 186.47C212.28 185.86 211.86 185.31 211.33 184.86C210.81 184.41 210.2 184.07 209.55 183.86C208.89 183.64 208.2 183.56 207.51 183.62L207.51 183.62Z" />
		</g>
		<path id="Layer" class="shp3" d="M174.15 252.28C151.89 252.28 138.51 232.53 133.76 215.16L133.6 214.55C133.09 212.85 133.29 211.01 134.16 209.46C135.03 207.91 136.5 206.79 138.22 206.34C139.94 205.89 141.76 206.16 143.28 207.09C144.8 208.02 145.87 209.52 146.25 211.26L146.37 211.71C149.98 224.93 159.81 240.04 175.58 239.17C177.06 239.12 178.53 238.91 179.96 238.55C181.4 238.2 182.79 237.69 184.12 237.04C185.45 236.39 186.71 235.61 187.88 234.7C189.04 233.78 190.11 232.75 191.06 231.62C199.71 221.7 203.58 200.13 202.72 189.25C202.56 187.84 202.97 186.42 203.87 185.32C204.77 184.23 206.08 183.54 207.5 183.43C208.92 183.32 210.32 183.79 211.38 184.73C212.44 185.67 213.08 187 213.14 188.42C214.14 200.53 212.82 226.56 200.91 240.21C199.39 242 197.69 243.63 195.83 245.07C193.98 246.51 191.98 247.75 189.87 248.78C187.76 249.81 185.55 250.62 183.27 251.2C181 251.77 178.67 252.11 176.32 252.21C175.59 252.26 174.86 252.28 174.15 252.28Z" />
		<path id="Layer" class="shp4" d="M161.31 238.75C161.84 236.3 155.98 240.13 151.07 243.7C151.52 244.08 151.99 244.46 152.46 244.82C152.93 245.18 153.41 245.53 153.9 245.87C154.38 246.21 154.88 246.54 155.38 246.86C155.88 247.17 156.39 247.48 156.91 247.77C158.66 244.92 160.8 241.11 161.31 238.75Z" />
		<path id="Layer" class="shp4" d="M174.15 252.28C174.86 252.28 175.59 252.28 176.32 252.22C176.85 252.19 177.38 252.15 177.91 252.1C178.44 252.05 178.97 251.98 179.49 251.91C180.02 251.83 180.55 251.75 181.07 251.65C181.59 251.56 182.11 251.45 182.63 251.33C179.87 247.73 176.07 242.97 174.98 242.61C173.73 242.19 171.32 248.32 169.98 252.04C170.33 252.08 170.67 252.12 171.02 252.15C171.37 252.18 171.71 252.2 172.06 252.22C172.41 252.24 172.76 252.26 173.11 252.27C173.45 252.28 173.8 252.28 174.15 252.28Z" />
		<path id="Layer" class="shp4" d="M146.37 211.71L146.25 211.26C145.87 209.52 144.8 208.02 143.28 207.09C141.76 206.16 139.94 205.89 138.22 206.34C136.5 206.79 135.03 207.91 134.16 209.46C133.29 211.01 133.09 212.85 133.6 214.55L133.76 215.16C134.18 216.68 134.65 218.19 135.18 219.68C135.7 221.16 136.29 222.63 136.92 224.08C137.56 225.52 138.25 226.94 138.99 228.34C139.73 229.73 140.52 231.09 141.36 232.43L153.27 226.76C152.49 225.61 151.76 224.43 151.08 223.23C150.4 222.02 149.77 220.78 149.19 219.52C148.61 218.26 148.09 216.98 147.62 215.68C147.15 214.37 146.73 213.05 146.37 211.71L146.37 211.71Z" />
		<path id="Layer" class="shp4" d="M200.91 240.21C201.14 239.95 201.36 239.68 201.58 239.41C201.8 239.13 202.02 238.86 202.23 238.58C202.44 238.3 202.65 238.02 202.85 237.73C203.06 237.45 203.26 237.16 203.45 236.87C199.67 235.58 194.01 233.8 191.91 233.99C189.42 234.22 192.8 242.22 194.54 245.99C195.12 245.57 195.7 245.14 196.26 244.69C196.82 244.24 197.36 243.77 197.89 243.29C198.43 242.8 198.94 242.31 199.45 241.79C199.95 241.28 200.44 240.75 200.91 240.21L200.91 240.21Z" />
		<path id="Layer" class="shp4" d="M201.12 218.84C200.72 219.64 205.61 223.2 208.91 225.49C209.17 224.71 209.42 223.93 209.66 223.14C209.89 222.36 210.12 221.57 210.33 220.77C210.54 219.98 210.73 219.18 210.92 218.38C211.1 217.58 211.27 216.78 211.43 215.97C207.43 216.77 201.51 218.06 201.12 218.84Z" />
		<path id="Layer" class="shp4" d="M213.05 204.05C213.27 201.2 213.38 198.48 213.39 195.98C209.95 197.87 205.87 200.49 205.87 202.21C205.87 203.93 209.69 204.14 213.05 204.05Z" />
		<path id="Layer" class="shp0" d="M159.21 126.68C159.21 126.68 149.5 154.8 154.73 176.68C155.5 179.87 156.64 182.96 158.12 185.89C159.6 188.82 161.41 191.57 163.52 194.09C165.63 196.61 168.02 198.87 170.64 200.84C173.27 202.81 176.11 204.47 179.12 205.79C182.13 207.11 164.93 210.79 168.12 218.48C171.31 226.17 183.54 221.22 187.53 218.73C191.52 216.24 196.53 208.78 197.23 203.8C197.34 203.16 197.43 202.53 197.51 201.89C197.59 201.24 197.65 200.6 197.69 199.96C197.73 199.31 197.76 198.67 197.76 198.02C197.77 197.38 197.76 196.73 197.73 196.09C197.7 195.45 213.9 194.35 224.85 185.39C224.85 185.39 234.56 193.1 241.53 191.61C248.5 190.12 258.45 177.67 257.45 166.48C256.45 155.29 250 155.3 246.06 157C245.55 157.19 245.05 157.41 244.56 157.65C244.08 157.9 243.6 158.17 243.14 158.46C242.68 158.75 242.24 159.07 241.81 159.4C241.38 159.74 240.97 160.1 240.58 160.48C240.19 160.86 246.3 153.48 240.58 143.81C239.74 142.4 238.74 141.08 237.6 139.89C236.46 138.71 235.2 137.65 233.82 136.75C232.44 135.85 230.97 135.1 229.43 134.53C227.88 133.96 226.28 133.57 224.65 133.36C223.02 133.15 221.65 117.43 212.71 111.46C203.77 105.49 171.9 99.31 159.21 126.68Z" />
		<g id="Layer">
			<path id="Layer" fill-rule="evenodd" class="shp1" d="M233.14 136.35C230.84 140.19 228.09 143.74 224.95 146.92C221.81 150.11 218.31 152.91 214.51 155.27C210.71 157.63 206.64 159.53 202.39 160.93C198.14 162.32 193.74 163.21 189.28 163.57C169.48 165.31 158.38 161.41 153.28 158.7C153.43 155.98 153.68 153.27 154 150.57C154.33 147.87 154.75 145.18 155.25 142.51C155.75 139.83 156.34 137.18 157.01 134.54C157.68 131.9 158.44 129.29 159.28 126.7C171.97 99.33 203.82 105.55 212.78 111.52C221.74 117.49 224.72 133.42 224.72 133.42C225.46 133.51 226.2 133.65 226.93 133.82C227.66 133.99 228.38 134.2 229.08 134.44C229.79 134.69 230.49 134.97 231.16 135.29C231.84 135.61 232.5 135.96 233.14 136.35ZM257.43 166.44C258.43 177.63 248.48 190.08 241.51 191.57C234.54 193.06 224.83 185.35 224.83 185.35C213.88 194.31 197.68 195.41 197.71 196.05C197.74 196.69 197.75 197.34 197.74 197.98C197.74 198.63 197.71 199.27 197.67 199.92C197.63 200.56 197.57 201.2 197.49 201.85C197.41 202.49 197.32 203.12 197.21 203.76C196.51 208.74 191.49 216.2 187.51 218.69C183.53 221.18 171.29 226.13 168.1 218.44C164.91 210.75 180.78 206.49 179.1 205.75C177.42 205.01 175.78 204.17 174.2 203.22C172.63 202.28 171.11 201.23 169.67 200.09C168.23 198.95 166.87 197.71 165.58 196.4C164.3 195.08 163.1 193.68 162 192.21C162.53 192.58 163.09 192.91 163.67 193.21C164.24 193.51 164.84 193.77 165.45 193.99C166.06 194.22 166.68 194.4 167.31 194.54C167.94 194.69 168.58 194.79 169.23 194.85C178.48 195.88 174.88 187.66 174.88 187.66C174.88 187.66 192.33 193.32 207.76 186.12C223.19 178.92 225.76 168.65 225.76 168.65C225.76 168.65 226.78 175.84 228.84 175.84C230.51 175.84 229.46 161.54 242.91 154.84C242.83 155.35 242.72 155.85 242.58 156.34C242.44 156.84 242.28 157.32 242.08 157.8C241.88 158.27 241.66 158.74 241.41 159.18C241.16 159.63 240.88 160.06 240.58 160.48C240.97 160.1 241.38 159.74 241.81 159.4C242.24 159.07 242.68 158.75 243.14 158.46C243.6 158.17 244.08 157.9 244.56 157.65C245.05 157.41 245.55 157.19 246.06 157C250 155.3 256.43 155.25 257.43 166.44Z" />
			<path id="Layer" fill-rule="evenodd" class="shp2" d="M233.14 136.35C230.84 140.19 228.09 143.74 224.95 146.92C221.81 150.11 218.31 152.91 214.51 155.27C210.71 157.63 206.64 159.53 202.39 160.93C198.14 162.32 193.74 163.21 189.28 163.57C169.48 165.31 158.38 161.41 153.28 158.7C153.43 155.98 153.68 153.27 154 150.57C154.33 147.87 154.75 145.18 155.25 142.51C155.75 139.83 156.34 137.18 157.01 134.54C157.68 131.9 158.44 129.29 159.28 126.7C171.97 99.33 203.82 105.55 212.78 111.52C221.74 117.49 224.72 133.42 224.72 133.42C225.46 133.51 226.2 133.65 226.93 133.82C227.66 133.99 228.38 134.2 229.08 134.44C229.79 134.69 230.49 134.97 231.16 135.29C231.84 135.61 232.5 135.96 233.14 136.35ZM257.43 166.44C258.43 177.63 248.48 190.08 241.51 191.57C234.54 193.06 224.83 185.35 224.83 185.35C213.88 194.31 197.68 195.41 197.71 196.05C197.74 196.69 197.75 197.34 197.74 197.98C197.74 198.63 197.71 199.27 197.67 199.92C197.63 200.56 197.57 201.2 197.49 201.85C197.41 202.49 197.32 203.12 197.21 203.76C196.51 208.74 191.49 216.2 187.51 218.69C183.53 221.18 171.29 226.13 168.1 218.44C164.91 210.75 180.78 206.49 179.1 205.75C177.42 205.01 175.78 204.17 174.2 203.22C172.63 202.28 171.11 201.23 169.67 200.09C168.23 198.95 166.87 197.71 165.58 196.4C164.3 195.08 163.1 193.68 162 192.21C162.53 192.58 163.09 192.91 163.67 193.21C164.24 193.51 164.84 193.77 165.45 193.99C166.06 194.22 166.68 194.4 167.31 194.54C167.94 194.69 168.58 194.79 169.23 194.85C178.48 195.88 174.88 187.66 174.88 187.66C174.88 187.66 192.33 193.32 207.76 186.12C223.19 178.92 225.76 168.65 225.76 168.65C225.76 168.65 226.78 175.84 228.84 175.84C230.51 175.84 229.46 161.54 242.91 154.84C242.83 155.35 242.72 155.85 242.58 156.34C242.44 156.84 242.28 157.32 242.08 157.8C241.88 158.27 241.66 158.74 241.41 159.18C241.16 159.63 240.88 160.06 240.58 160.48C240.97 160.1 241.38 159.74 241.81 159.4C242.24 159.07 242.68 158.75 243.14 158.46C243.6 158.17 244.08 157.9 244.56 157.65C245.05 157.41 245.55 157.19 246.06 157C250 155.3 256.43 155.25 257.43 166.44Z" />
			<path id="Layer" class="shp3" d="M197.78 196.11C195.11 196.18 192.43 195.95 189.81 195.41C187.19 194.87 184.64 194.04 182.21 192.93C179.77 191.81 177.48 190.42 175.36 188.78C173.24 187.15 171.32 185.27 169.63 183.2" />
		</g>
		<path id="Layer" class="shp3" d="M159.21 126.68C159.21 126.68 149.5 154.8 154.73 176.68C155.5 179.87 156.64 182.96 158.12 185.89C159.6 188.82 161.41 191.57 163.52 194.09C165.63 196.61 168.02 198.87 170.64 200.84C173.27 202.81 176.11 204.47 179.12 205.79C182.13 207.11 164.93 210.79 168.12 218.48C171.31 226.17 183.54 221.22 187.53 218.73C191.52 216.24 196.53 208.78 197.23 203.8C197.34 203.16 197.43 202.53 197.51 201.89C197.59 201.24 197.65 200.6 197.69 199.96C197.73 199.31 197.76 198.67 197.76 198.02C197.77 197.38 197.76 196.73 197.73 196.09C197.7 195.45 213.9 194.35 224.85 185.39C224.85 185.39 234.56 193.1 241.53 191.61C248.5 190.12 258.45 177.67 257.45 166.48C256.45 155.29 250 155.3 246.06 157C245.55 157.19 245.05 157.41 244.56 157.65C244.08 157.9 243.6 158.17 243.14 158.46C242.68 158.75 242.24 159.07 241.81 159.4C241.38 159.74 240.97 160.1 240.58 160.48C240.19 160.86 246.3 153.48 240.58 143.81C239.74 142.4 238.74 141.08 237.6 139.89C236.46 138.71 235.2 137.65 233.82 136.75C232.44 135.85 230.97 135.1 229.43 134.53C227.88 133.96 226.28 133.57 224.65 133.36C223.02 133.15 221.65 117.43 212.71 111.46C203.77 105.49 171.9 99.31 159.21 126.68Z" />
		<path id="Layer" class="shp3" d="M240.58 160.52C240.58 160.52 235.36 164.01 232.87 174.71" />
		<path id="Layer" class="shp5" d="M250.17 165.1C249.56 166.92 247.89 168.01 246.45 167.52C245.01 167.03 244.35 165.16 244.96 163.34C245.57 161.52 247.24 160.43 248.68 160.92C250.12 161.41 250.79 163.28 250.17 165.1Z" />
		<path id="Layer" class="shp5" d="M255.32 168.34C254.71 170.16 253.04 171.25 251.6 170.76C250.16 170.27 249.49 168.4 250.11 166.58C250.73 164.76 252.39 163.67 253.83 164.16C255.27 164.65 255.94 166.52 255.32 168.34Z" />
		<path id="Layer" class="shp5" d="M256.42 173.19C256.01 173.87 255.25 174.26 254.46 174.19C253.66 174.11 252.99 173.59 252.71 172.84C252.44 172.09 252.63 171.25 253.19 170.69C253.74 170.12 254.58 169.93 255.33 170.19C255.59 170.32 255.83 170.5 256.02 170.72C256.22 170.94 256.37 171.2 256.47 171.47C256.57 171.75 256.62 172.04 256.61 172.34C256.6 172.63 256.54 172.92 256.42 173.19Z" />
		<path id="Layer" class="shp5" d="M249.85 179.85C248.05 183.1 244.45 184.54 241.8 183.07C239.15 181.6 238.47 177.79 240.27 174.54C242.07 171.29 245.67 169.85 248.32 171.32C250.97 172.79 251.65 176.6 249.85 179.85Z" />
		<path id="Layer" class="shp3" d="M179.12 205.81C179.95 206.2 180.81 206.51 181.7 206.73C182.58 206.96 183.49 207.11 184.4 207.17C185.31 207.24 186.23 207.22 187.14 207.12C188.05 207.01 188.94 206.83 189.82 206.56" />
		<path id="Layer" class="shp3" d="M168.17 218.5C168.17 218.5 169.17 214.27 175.38 211.29" />
		<path id="Layer" class="shp3" d="M174.39 222.24C174.39 222.24 176.88 216.24 181.11 213.53" />
		<path id="Layer" fill-rule="evenodd" class="shp6" d="M74.84 151.97C74.43 151.43 74.08 150.86 73.8 150.24C73.52 149.63 73.32 148.98 73.19 148.32C73.06 147.66 73.01 146.98 73.04 146.31L73.04 122.6L11.88 122.6C11.14 122.63 10.39 122.58 9.66 122.44C8.92 122.31 8.21 122.1 7.52 121.82C6.83 121.53 6.17 121.17 5.56 120.74C4.95 120.32 4.39 119.83 3.88 119.28C3.39 118.76 2.94 118.19 2.56 117.58C2.17 116.97 1.85 116.33 1.59 115.66C1.32 114.99 1.13 114.29 1 113.59C0.87 112.88 0.81 112.16 0.82 111.44C0.82 110.85 0.86 110.27 0.94 109.68C1.03 109.1 1.16 108.53 1.32 107.97C1.49 107.4 1.7 106.85 1.95 106.32C2.21 105.79 2.49 105.28 2.82 104.79L61.4 12.73C65.8 5.94 71.65 2.54 78.94 2.54C79.91 2.51 80.88 2.56 81.84 2.71C82.8 2.86 83.74 3.09 84.66 3.41C85.57 3.73 86.46 4.14 87.3 4.62C88.14 5.11 88.93 5.67 89.67 6.3C92.53 8.8 93.96 12.52 93.96 17.45L93.96 106.94L109.52 106.94C110.06 106.91 110.59 106.93 111.12 107.02C111.65 107.1 112.17 107.25 112.67 107.45C113.17 107.64 113.65 107.9 114.09 108.2C114.53 108.5 114.94 108.85 115.31 109.24C115.96 110 116.47 110.88 116.82 111.82C117.17 112.77 117.35 113.76 117.35 114.77C117.35 115.78 117.17 116.77 116.82 117.72C116.47 118.66 115.96 119.53 115.31 120.3C114.94 120.69 114.53 121.04 114.09 121.34C113.65 121.64 113.17 121.9 112.67 122.09C112.17 122.29 111.65 122.44 111.12 122.52C110.59 122.61 110.06 122.63 109.52 122.6L93.85 122.6L93.85 146.31C93.88 146.98 93.84 147.65 93.72 148.31C93.59 148.97 93.4 149.61 93.13 150.22C92.86 150.83 92.52 151.41 92.12 151.95C91.72 152.48 91.25 152.97 90.74 153.4C90.24 153.82 89.71 154.19 89.14 154.51C88.58 154.84 87.99 155.11 87.38 155.33C86.76 155.55 86.13 155.71 85.49 155.82C84.85 155.93 84.2 155.98 83.55 155.97C82.89 155.98 82.24 155.92 81.59 155.81C80.94 155.71 80.3 155.54 79.68 155.32C79.06 155.1 78.46 154.83 77.89 154.51C77.31 154.19 76.77 153.82 76.26 153.4C75.73 152.98 75.26 152.5 74.84 151.97ZM73 106.94L73 24.54L21.71 106.94L73 106.94Z" />
		<path id="Layer" fill-rule="evenodd" class="shp6" d="M156.78 151.67C155.37 150.86 154.01 149.96 152.7 148.98C151.4 148.01 150.15 146.96 148.97 145.84C147.79 144.72 146.67 143.54 145.62 142.29C144.57 140.97 143.57 139.61 142.63 138.2C141.69 136.8 140.81 135.36 139.99 133.88C139.18 132.4 138.42 130.89 137.73 129.35C137.04 127.8 136.42 126.23 135.86 124.64C135.23 122.92 134.64 121.17 134.1 119.42C133.56 117.66 133.07 115.89 132.63 114.11C132.19 112.33 131.79 110.53 131.44 108.73C131.1 106.92 130.8 105.11 130.55 103.29C130.29 101.31 130.06 99.32 129.87 97.33C129.68 95.34 129.52 93.35 129.39 91.35C129.27 89.35 129.18 87.36 129.12 85.36C129.06 83.36 129.04 81.36 129.05 79.36C129.05 26.65 147.05 0.29 183.05 0.29C219.05 0.29 237.01 26.65 236.92 79.36C236.93 81.35 236.91 83.34 236.85 85.33C236.79 87.32 236.7 89.31 236.58 91.29C236.46 93.28 236.31 95.26 236.12 97.25C235.94 99.23 235.72 101.21 235.47 103.18C235.23 105 234.94 106.81 234.6 108.62C234.26 110.42 233.87 112.22 233.43 114C232.99 115.78 232.5 117.55 231.96 119.31C231.43 121.07 230.84 122.81 230.21 124.53C229.65 126.12 229.03 127.69 228.34 129.24C227.65 130.78 226.89 132.29 226.08 133.77C225.26 135.25 224.38 136.69 223.44 138.09C222.5 139.5 221.5 140.86 220.45 142.18C219.4 143.43 218.28 144.62 217.1 145.74C215.91 146.86 214.67 147.91 213.36 148.89C212.06 149.87 210.7 150.77 209.29 151.59C207.88 152.42 206.43 153.16 204.94 153.82C203.22 154.58 201.47 155.24 199.68 155.81C197.89 156.38 196.07 156.85 194.24 157.22C192.4 157.59 190.54 157.86 188.67 158.02C186.8 158.19 184.93 158.26 183.05 158.22C181.17 158.26 179.3 158.19 177.43 158.03C175.56 157.87 173.7 157.6 171.86 157.24C170.01 156.87 168.19 156.41 166.4 155.85C164.61 155.29 162.85 154.63 161.13 153.88C159.64 153.23 158.18 152.49 156.78 151.67ZM193.69 138.75C194.44 138.43 195.18 138.07 195.89 137.68C196.61 137.29 197.31 136.86 197.98 136.41C198.66 135.95 199.31 135.46 199.94 134.93C200.56 134.41 201.17 133.86 201.74 133.28C202.32 132.66 202.88 132.02 203.41 131.35C203.94 130.69 204.44 130 204.92 129.3C205.39 128.59 205.84 127.87 206.26 127.13C206.68 126.39 207.06 125.63 207.42 124.86C207.81 124.04 208.19 123.21 208.55 122.38C208.9 121.54 209.24 120.7 209.56 119.85C209.88 119 210.17 118.14 210.45 117.27C210.73 116.41 210.99 115.54 211.23 114.66C211.48 113.7 211.72 112.74 211.93 111.78C212.15 110.82 212.35 109.85 212.54 108.88C212.72 107.91 212.89 106.93 213.04 105.96C213.18 104.98 213.32 104 213.43 103.02C213.97 98.69 214.33 94.72 214.51 91.11C214.69 87.5 214.78 83.59 214.77 79.36C214.77 74.93 214.68 70.83 214.51 67.08C214.34 63.33 213.96 59.3 213.38 55C213.26 54.02 213.12 53.04 212.96 52.06C212.8 51.09 212.63 50.11 212.44 49.14C212.26 48.17 212.05 47.21 211.83 46.24C211.61 45.28 211.38 44.32 211.13 43.36C210.89 42.49 210.64 41.63 210.36 40.77C210.08 39.92 209.78 39.07 209.47 38.23C209.15 37.39 208.81 36.55 208.45 35.73C208.09 34.9 207.72 34.09 207.32 33.28C206.96 32.52 206.57 31.78 206.15 31.05C205.73 30.32 205.28 29.61 204.81 28.92C204.33 28.22 203.83 27.55 203.3 26.9C202.77 26.25 202.21 25.62 201.63 25.01C201.06 24.44 200.46 23.9 199.84 23.39C199.21 22.88 198.56 22.4 197.89 21.96C197.22 21.51 196.53 21.1 195.82 20.72C195.11 20.35 194.38 20.01 193.63 19.7C191.94 19.05 190.19 18.55 188.41 18.22C186.63 17.89 184.82 17.72 183 17.72C181.19 17.72 179.38 17.89 177.6 18.22C175.82 18.55 174.07 19.05 172.38 19.7C171.64 20 170.92 20.34 170.21 20.71C169.5 21.09 168.81 21.49 168.15 21.94C167.48 22.38 166.84 22.85 166.22 23.36C165.6 23.86 165.01 24.4 164.44 24.96C163.86 25.56 163.31 26.19 162.78 26.84C162.26 27.49 161.75 28.16 161.28 28.84C160.8 29.53 160.35 30.23 159.93 30.96C159.51 31.68 159.12 32.42 158.76 33.17C158.36 33.97 157.98 34.78 157.62 35.6C157.27 36.42 156.93 37.25 156.62 38.09C156.3 38.92 156.01 39.77 155.74 40.62C155.47 41.47 155.22 42.33 155 43.2C154.76 44.16 154.53 45.13 154.31 46.1C154.1 47.07 153.9 48.04 153.72 49.02C153.53 49.99 153.37 50.97 153.21 51.95C153.06 52.93 152.92 53.91 152.8 54.9C152.22 59.26 151.84 63.32 151.67 67.08C151.5 70.84 151.41 74.93 151.4 79.36C151.4 83.58 151.49 87.51 151.67 91.16C151.85 94.81 152.21 98.81 152.74 103.16C152.86 104.14 152.99 105.12 153.14 106.1C153.29 107.07 153.45 108.05 153.64 109.02C153.82 109.99 154.02 110.96 154.24 111.92C154.46 112.88 154.69 113.84 154.94 114.8C155.18 115.68 155.43 116.55 155.71 117.41C155.98 118.28 156.28 119.13 156.59 119.99C156.91 120.84 157.24 121.68 157.59 122.52C157.95 123.35 158.32 124.18 158.71 125C159.06 125.77 159.45 126.52 159.86 127.26C160.27 127.99 160.72 128.71 161.19 129.41C161.66 130.11 162.16 130.79 162.68 131.45C163.21 132.11 163.76 132.75 164.34 133.37C164.91 133.95 165.51 134.49 166.13 135.01C166.75 135.53 167.4 136.02 168.07 136.47C168.75 136.93 169.44 137.35 170.15 137.74C170.86 138.12 171.59 138.47 172.34 138.79C174.03 139.48 175.78 140 177.58 140.35C179.37 140.7 181.19 140.88 183.01 140.88C184.84 140.88 186.66 140.7 188.45 140.35C190.25 140 192 139.48 193.69 138.79L193.69 138.75Z" />
		<path id="Layer" fill-rule="evenodd" class="shp6" d="M328.16 151.97C327.75 151.43 327.4 150.86 327.12 150.24C326.84 149.63 326.64 148.98 326.51 148.32C326.38 147.66 326.33 146.98 326.36 146.31L326.36 122.6L265.2 122.6C264.46 122.63 263.71 122.58 262.98 122.44C262.24 122.31 261.53 122.1 260.84 121.82C260.15 121.53 259.49 121.17 258.88 120.74C258.27 120.32 257.71 119.83 257.2 119.28C256.71 118.76 256.26 118.19 255.88 117.58C255.49 116.97 255.17 116.33 254.91 115.66C254.64 114.99 254.45 114.29 254.32 113.59C254.19 112.88 254.13 112.16 254.14 111.44C254.14 110.85 254.18 110.27 254.26 109.68C254.35 109.1 254.48 108.53 254.65 107.97C254.81 107.4 255.02 106.85 255.27 106.32C255.53 105.79 255.81 105.28 256.14 104.79L314.72 12.73C319.08 5.94 324.91 2.54 332.21 2.54C333.18 2.5 334.16 2.56 335.13 2.7C336.09 2.85 337.04 3.08 337.96 3.4C338.88 3.72 339.77 4.13 340.62 4.62C341.46 5.1 342.26 5.67 343 6.3C345.86 8.8 347.29 12.52 347.29 17.45L347.29 106.94L362.85 106.94C363.39 106.91 363.92 106.93 364.45 107.02C364.98 107.1 365.5 107.25 366 107.45C366.5 107.64 366.98 107.9 367.42 108.2C367.86 108.5 368.27 108.85 368.64 109.24C369.29 110 369.8 110.88 370.15 111.82C370.5 112.77 370.68 113.76 370.68 114.77C370.68 115.78 370.5 116.77 370.15 117.72C369.8 118.66 369.29 119.53 368.64 120.3C368.27 120.69 367.86 121.04 367.42 121.34C366.98 121.64 366.5 121.9 366 122.09C365.5 122.29 364.98 122.44 364.45 122.52C363.92 122.61 363.39 122.63 362.85 122.6L347.17 122.6L347.17 146.31C347.2 146.98 347.16 147.65 347.04 148.31C346.91 148.97 346.72 149.61 346.45 150.22C346.18 150.83 345.84 151.41 345.44 151.95C345.04 152.48 344.57 152.97 344.06 153.4C343.56 153.82 343.03 154.19 342.46 154.51C341.9 154.84 341.31 155.11 340.7 155.33C340.08 155.55 339.45 155.71 338.81 155.82C338.17 155.93 337.52 155.98 336.87 155.97C336.21 155.98 335.56 155.92 334.91 155.81C334.26 155.71 333.62 155.54 333 155.32C332.38 155.1 331.78 154.83 331.21 154.51C330.63 154.19 330.09 153.82 329.58 153.4C329.05 152.98 328.58 152.5 328.16 151.97ZM326.36 106.94L326.36 24.54L275.07 106.94L326.36 106.94Z" />
		<path id="Layer" class="shp0" d="M139.05 112.5C139.05 112.5 128.6 127.18 127.11 142.11C125.62 157.04 127.36 166.99 131.84 170.73C136.32 174.47 140.79 172.97 143.28 169.48C145.77 165.99 141.79 153.8 141.79 153.8C141.79 153.8 146.02 142.11 152.49 133.9C158.96 125.69 160.2 124.44 160.2 124.44C160.2 124.44 149 111.75 139.05 112.5Z" />
		<g id="Layer">
			<path id="Layer" class="shp1" d="M139.05 112.5C138.48 113.34 137.93 114.19 137.39 115.06C136.85 115.92 136.33 116.79 135.83 117.68C135.32 118.56 134.83 119.45 134.36 120.35C133.89 121.25 133.44 122.16 133 123.08C138 125.08 145.75 129.18 150.67 136.44C151.27 135.57 151.89 134.71 152.53 133.9C159 125.69 160.24 124.44 160.24 124.44C160.24 124.44 149 111.75 139.05 112.5Z" />
			<path id="Layer" class="shp2" d="M139.05 112.5C138.48 113.34 137.93 114.19 137.39 115.06C136.85 115.92 136.33 116.79 135.83 117.68C135.32 118.56 134.83 119.45 134.36 120.35C133.89 121.25 133.44 122.16 133 123.08C138 125.08 145.75 129.18 150.67 136.44C151.27 135.57 151.89 134.71 152.53 133.9C159 125.69 160.24 124.44 160.24 124.44C160.24 124.44 149 111.75 139.05 112.5Z" />
		</g>
		<path id="Layer" class="shp3" d="M139.05 112.5C139.05 112.5 128.6 127.18 127.11 142.11C125.62 157.04 127.36 166.99 131.84 170.73C136.32 174.47 140.79 172.97 143.28 169.48C145.77 165.99 141.79 153.8 141.79 153.8C141.79 153.8 146.02 142.11 152.49 133.9C158.96 125.69 160.2 124.44 160.2 124.44C160.2 124.44 149 111.75 139.05 112.5Z" />
		<path id="Layer" class="shp3" d="M131.84 170.73C131.54 169.92 131.27 169.09 131.04 168.25C130.82 167.41 130.63 166.56 130.48 165.71C130.34 164.85 130.23 163.99 130.16 163.12C130.1 162.26 130.07 161.39 130.09 160.52" />
		<path id="Layer" class="shp3" d="M138.55 172.22C138.55 172.22 136.07 167.99 135.82 160.77" />
		<path id="Layer" class="shp4" d="M142.29 139.12C142.29 136.5 137.29 131.38 130.34 129.12C130.11 129.73 129.88 130.34 129.67 130.96C129.46 131.57 129.25 132.19 129.06 132.82C128.87 133.44 128.69 134.07 128.51 134.69C128.34 135.32 128.18 135.96 128.03 136.59C128.7 136.71 129.37 136.84 130.04 137.01C130.7 137.17 131.36 137.35 132.01 137.56C132.66 137.77 133.31 138 133.94 138.25C134.58 138.51 135.2 138.78 135.82 139.08C139.55 141.11 142.29 142.11 142.29 139.12Z" />
		<path id="Layer" class="shp4" d="M138.44 113.39C138.04 114 137.64 114.62 137.26 115.25C136.87 115.87 136.49 116.5 136.12 117.14C135.75 117.77 135.39 118.41 135.03 119.05C134.68 119.7 134.34 120.35 134 121C134.53 121.14 135.05 121.3 135.56 121.47C136.08 121.64 136.58 121.84 137.09 122.05C137.59 122.25 138.08 122.48 138.57 122.72C139.05 122.97 139.53 123.22 140 123.5C147.71 127.97 149.2 128.5 146.72 122C145.22 117.92 141.64 115.15 138.44 113.39Z" />
		<path id="Layer" class="shp0" d="M220.9 105.25C220.9 105.25 232.74 118.83 235.69 133.55C238.64 148.27 237.89 158.34 233.79 162.49C229.69 166.64 225.1 165.6 222.28 162.37C219.46 159.14 222.28 146.63 222.28 146.63C222.28 146.63 216.92 135.4 209.68 127.86C202.44 120.32 201.07 119.21 201.07 119.21C201.07 119.21 210.92 105.48 220.9 105.25Z" />
		<g id="Layer">
			<path id="Layer" class="shp1" d="M220.9 105.25C210.9 105.48 201.02 119.25 201.02 119.25C201.02 119.25 202.38 120.37 209.63 127.9C209.97 128.26 210.3 128.62 210.63 128.98C210.96 129.35 211.28 129.72 211.6 130.1C211.92 130.47 212.23 130.85 212.54 131.24C212.85 131.62 213.15 132.01 213.45 132.4C214.39 130.81 215.44 129.29 216.58 127.83C217.72 126.38 218.95 125 220.27 123.71C221.6 122.42 223 121.22 224.48 120.12C225.96 119.01 227.51 118 229.12 117.1C228.52 116.05 227.91 115.02 227.26 114C226.62 112.99 225.96 111.98 225.27 110.99C224.59 110 223.88 109.03 223.15 108.07C222.42 107.12 221.67 106.17 220.9 105.25L220.9 105.25Z" />
			<path id="Layer" class="shp2" d="M220.9 105.25C210.9 105.48 201.02 119.25 201.02 119.25C201.02 119.25 202.38 120.37 209.63 127.9C209.97 128.26 210.3 128.62 210.63 128.98C210.96 129.35 211.28 129.72 211.6 130.1C211.92 130.47 212.23 130.85 212.54 131.24C212.85 131.62 213.15 132.01 213.45 132.4C214.39 130.81 215.44 129.29 216.58 127.83C217.72 126.38 218.95 125 220.27 123.71C221.6 122.42 223 121.22 224.48 120.12C225.96 119.01 227.51 118 229.12 117.1C228.52 116.05 227.91 115.02 227.26 114C226.62 112.99 225.96 111.98 225.27 110.99C224.59 110 223.88 109.03 223.15 108.07C222.42 107.12 221.67 106.17 220.9 105.25L220.9 105.25Z" />
		</g>
		<path id="Layer" class="shp3" d="M220.9 105.25C220.9 105.25 232.74 118.83 235.69 133.55C238.64 148.27 237.89 158.34 233.79 162.49C229.69 166.64 225.1 165.6 222.28 162.37C219.46 159.14 222.28 146.63 222.28 146.63C222.28 146.63 216.92 135.4 209.68 127.86C202.44 120.32 201.07 119.21 201.07 119.21C201.07 119.21 210.92 105.48 220.9 105.25Z" />
		<path id="Layer" class="shp3" d="M233.79 162.49C234.01 161.65 234.2 160.8 234.34 159.95C234.48 159.09 234.59 158.23 234.65 157.37C234.71 156.5 234.73 155.63 234.71 154.76C234.69 153.9 234.63 153.03 234.53 152.17" />
		<path id="Layer" class="shp3" d="M227.25 164.63C227.25 164.63 229.32 160.18 228.86 152.97" />
		<path id="Layer" class="shp4" d="M220.29 132.06C220.04 129.45 224.51 123.87 231.21 120.98C231.5 121.56 231.78 122.15 232.05 122.74C232.32 123.33 232.58 123.93 232.83 124.53C233.08 125.13 233.32 125.74 233.55 126.34C233.78 126.95 234 127.56 234.21 128.18C233.55 128.36 232.9 128.57 232.26 128.8C231.61 129.03 230.98 129.28 230.35 129.55C229.72 129.82 229.1 130.11 228.5 130.43C227.89 130.74 227.29 131.08 226.71 131.43C223.21 133.78 220.59 135 220.29 132.06Z" />
		<path id="Layer" class="shp4" d="M221.59 106.08C222.05 106.65 222.5 107.22 222.95 107.8C223.39 108.38 223.83 108.96 224.26 109.56C224.68 110.15 225.1 110.74 225.52 111.35C225.93 111.95 226.33 112.56 226.73 113.17C226.22 113.36 225.71 113.57 225.22 113.79C224.72 114.01 224.23 114.25 223.75 114.51C223.27 114.77 222.8 115.04 222.34 115.33C221.87 115.62 221.42 115.92 220.98 116.24C213.75 121.46 212.31 122.1 214.15 115.42C215.3 111.25 218.58 108.14 221.59 106.08Z" />
		<path id="Layer" class="shp0" d="M138.07 99.8C138.07 99.8 134.99 110.19 136.15 114.42C137.31 118.65 142.69 114.81 148.08 119.42C153.47 124.03 158.46 132.35 178.87 133.89C199.28 135.43 211.6 124.42 215.87 118.26C220.14 112.1 219.72 104.79 227.03 104.41C234.34 104.03 228.19 89.78 225.88 87.47C225.88 87.47 240.12 66.3 240.12 60.91C240.12 55.52 226.65 56.67 210.12 61.68C210.12 61.68 197.8 55.13 175.47 58.98C153.14 62.83 146.6 69.38 146.6 69.38C146.6 69.38 118.88 72.84 116.96 76.3C115.04 79.76 120.75 94.41 138.07 99.8Z" />
		<g id="Layer">
			<path id="Layer" class="shp1" d="M227 104.42C234.32 104.03 228.16 89.79 225.85 87.48C225.85 87.48 228.56 83.48 231.61 78.48C223.34 74.16 215.22 71.76 213.06 74.19C208.41 79.41 210.94 89.41 213.06 99.19C215.18 108.97 206.71 113.14 200.79 121.6C194.87 130.06 186.42 120.75 186.42 120.75C183.42 133.02 170.77 124.98 170.77 124.98C161.05 121.98 144.56 112.3 147.94 105.53C151.32 98.76 152.17 92.42 146.25 86.93C140.33 81.44 116.72 76.87 116.72 76.87L116.72 76.87C115.48 81.04 121.47 94.7 138.08 99.87C138.08 99.87 135 110.26 136.16 114.49C137.32 118.72 142.7 114.88 148.09 119.49C153.48 124.1 158.47 132.42 178.88 133.96C199.29 135.5 211.61 124.49 215.88 118.33C220.15 112.17 219.68 104.8 227 104.42Z" />
			<path id="Layer" class="shp2" d="M227 104.42C234.32 104.03 228.16 89.79 225.85 87.48C225.85 87.48 228.56 83.48 231.61 78.48C223.34 74.16 215.22 71.76 213.06 74.19C208.41 79.41 210.94 89.41 213.06 99.19C215.18 108.97 206.71 113.14 200.79 121.6C194.87 130.06 186.42 120.75 186.42 120.75C183.42 133.02 170.77 124.98 170.77 124.98C161.05 121.98 144.56 112.3 147.94 105.53C151.32 98.76 152.17 92.42 146.25 86.93C140.33 81.44 116.72 76.87 116.72 76.87L116.72 76.87C115.48 81.04 121.47 94.7 138.08 99.87C138.08 99.87 135 110.26 136.16 114.49C137.32 118.72 142.7 114.88 148.09 119.49C153.48 124.1 158.47 132.42 178.88 133.96C199.29 135.5 211.61 124.49 215.88 118.33C220.15 112.17 219.68 104.8 227 104.42Z" />
			<path id="Layer" class="shp1" d="M196.89 106.74C197.18 109.18 191.76 111.81 184.81 112.62C177.86 113.43 171.98 112.11 171.69 109.62C171.4 107.13 176.82 104.56 183.78 103.75C190.74 102.94 196.61 104.31 196.89 106.74Z" />
			<path id="Layer" class="shp2" d="M196.89 106.74C197.18 109.18 191.76 111.81 184.81 112.62C177.86 113.43 171.98 112.11 171.69 109.62C171.4 107.13 176.82 104.56 183.78 103.75C190.74 102.94 196.61 104.31 196.89 106.74Z" />
		</g>
		<path id="Layer" class="shp7" d="M138.07 99.8C138.07 99.8 134.99 110.19 136.15 114.42C137.31 118.65 142.69 114.81 148.08 119.42C153.47 124.03 158.46 132.35 178.87 133.89C199.28 135.43 211.6 124.42 215.87 118.26C220.14 112.1 219.72 104.79 227.03 104.41C234.34 104.03 228.19 89.78 225.88 87.47C225.88 87.47 240.12 66.3 240.12 60.91C240.12 55.52 226.65 56.67 210.12 61.68C210.12 61.68 197.8 55.13 175.47 58.98C153.14 62.83 146.6 69.38 146.6 69.38C146.6 69.38 118.88 72.84 116.96 76.3C115.04 79.76 120.75 94.41 138.07 99.8Z" />
		<path id="Layer" class="shp8" d="M217.69 69C207.69 75.72 211.22 82.44 215.69 86.17C218.42 88.45 222.82 88.17 225.83 87.53L225.83 87.53C225.83 87.53 240.07 66.36 240.07 60.97C240.08 60.92 227.64 62.23 217.69 69Z" />
		<path id="Layer" class="shp8" d="M116.71 76.8C115.47 80.97 121.46 94.63 138.07 99.8C138.07 99.8 150.75 98.56 146.52 88.36C142.57 78.84 122.6 76.47 116.71 76.8Z" />
		<path id="Layer" class="shp8" d="M175.41 59C174.1 59.23 172.84 59.47 171.63 59.71C173.63 69.81 176.92 86.63 179.86 86.63C182.8 86.63 185.05 68.19 186.01 57.86C185.12 57.9 184.23 57.95 183.35 58.02C182.46 58.08 181.58 58.16 180.69 58.26C179.81 58.35 178.93 58.46 178.04 58.59C177.16 58.71 176.29 58.85 175.41 59L175.41 59Z" />
		<path id="Layer" class="shp8" d="M163.94 83.63C167 81.83 166.54 68.3 166.05 60.96C165.26 61.16 164.47 61.36 163.69 61.58C162.91 61.8 162.13 62.03 161.35 62.28C160.58 62.52 159.8 62.77 159.03 63.04C158.27 63.3 157.5 63.58 156.74 63.87C157.85 70.74 160.67 85.55 163.94 83.63Z" />
		<path id="Layer" class="shp8" d="M193.55 77.41C196.68 78.51 198.44 67.26 199.43 58.6C198.64 58.47 197.85 58.36 197.05 58.26C196.26 58.16 195.46 58.08 194.67 58.01C193.87 57.94 193.07 57.89 192.27 57.85C191.47 57.82 190.67 57.8 189.87 57.79C189.77 64.9 190.16 76.22 193.55 77.41Z" />
		<path id="Layer" class="shp4" d="M189.36 116.35C188.64 116.16 187.9 116.04 187.16 115.99C186.41 115.94 185.66 115.96 184.92 116.05C184.18 116.14 183.45 116.3 182.74 116.53C182.03 116.76 181.34 117.06 180.69 117.42C180.57 117.49 180.48 117.58 180.4 117.69C180.33 117.8 180.28 117.93 180.27 118.06C180.25 118.2 180.27 118.33 180.31 118.46C180.36 118.58 180.43 118.7 180.53 118.79L185.84 123.79C185.94 123.88 186.06 123.95 186.19 123.99C186.32 124.03 186.46 124.03 186.59 124.01C186.73 123.98 186.85 123.92 186.96 123.84C187.07 123.75 187.15 123.64 187.21 123.52L189.93 117.52C189.98 117.41 190 117.28 190 117.16C190 117.04 189.97 116.92 189.91 116.8C189.86 116.69 189.78 116.6 189.69 116.52C189.59 116.44 189.48 116.38 189.36 116.35Z" />
		<path id="Layer" class="shp6" d="M176.74 108C177.47 109.93 177.18 111.83 176.09 112.24C175 112.65 173.52 111.43 172.78 109.51C172.04 107.59 172.34 105.68 173.43 105.27C174.52 104.86 176 106.08 176.74 108Z" />
		<path id="Layer" class="shp6" d="M191.22 106.63C190.84 108.63 191.46 110.48 192.61 110.69C193.76 110.9 195 109.44 195.38 107.41C195.76 105.38 195.14 103.57 193.99 103.35C192.84 103.13 191.6 104.61 191.22 106.63Z" />
		<path id="Layer" class="shp3" d="M187.21 123.51C187.21 123.51 180.11 133.15 173.64 123.45" />
		<path id="Layer" class="shp3" d="M185.84 123.78C185.84 123.78 190.56 128.67 195.54 125.93C200.52 123.19 197.54 118.93 197.54 118.93" />
		<path id="Layer" class="shp9" d="M164.19 100.3C164.19 100.3 165.93 94.08 174.14 95.57" />
		<path id="Layer" class="shp9" d="M189.07 94.58C189.07 94.58 195.29 90.85 201.01 96.82" />
		<path id="Layer" class="shp10" d="M159.46 116.98L165.43 118.47" />
		<path id="Layer" class="shp10" d="M164.68 120.71L159.46 121.7" />
		<path id="Layer" class="shp10" d="M165.68 123.45L161.95 125.44" />
		<path id="Layer" class="shp10" d="M203.5 114.24L208.73 112.99" />
		<path id="Layer" class="shp10" d="M204.5 116.73L207.98 116.73" />
		<path id="Layer" class="shp10" d="M205.24 119.22L209.97 120.46" />
	</g>
</svg>