<svg version="1.1" id="Layer_1" xmlns="http://www.w3.org/2000/svg" xmlns:xlink="http://www.w3.org/1999/xlink" x="0px" y="0px"
	 width="650px" height="383px" viewBox="0 0 650 383" enable-background="new 0 0 650 383" xml:space="preserve">
<g>
	<g>
		<defs>
			<rect id="SVGID_1_" y="-2.5" width="650" height="500"/>
		</defs>
		<clipPath id="SVGID_2_">
			<use xlink:href="#SVGID_1_"  overflow="visible"/>
		</clipPath>
		<path clip-path="url(#SVGID_2_)" fill="#DDDDDD" d="M474.104,312.927l-0.425,7.861c-4.619-0.246-9.148,0.781-13.142,2.84
			l-3.633-7.039c-1.241,0.738-2.557,1.375-3.712,2.266c-0.589,0.418-1.191,0.821-1.763,1.273l-1.645,1.419
			c-0.564,0.464-1.07,0.985-1.567,1.51c-0.5,0.533-1.013,1.043-1.48,1.597c-0.884,1.153-1.854,2.247-2.589,3.506l6.605,4.284
			c-1.219,1.864-2.21,3.918-2.927,6.137c-0.716,2.22-1.11,4.456-1.211,6.682l-7.863-0.388c-0.141,1.45,0.007,2.907,0.05,4.358
			c0.056,0.723,0.17,1.444,0.268,2.16c0.094,0.726,0.199,1.444,0.389,2.143l0.505,2.112c0.198,0.7,0.451,1.38,0.682,2.072
			c0.42,1.39,1.114,2.675,1.69,4l7.063-3.587c2.032,4.014,5.118,7.489,9.009,9.99l-4.261,6.623c2.414,1.638,5.12,2.763,7.835,3.735
			c2.78,0.801,5.623,1.468,8.539,1.551l0.425-7.861c4.619,0.246,9.146-0.772,13.142-2.84l3.632,7.039
			c1.251-0.734,2.558-1.374,3.71-2.257c0.592-0.427,1.194-0.83,1.765-1.282l1.653-1.415c0.563-0.456,1.06-0.98,1.56-1.514
			c0.498-0.524,1.013-1.043,1.489-1.594c0.884-1.152,1.854-2.247,2.589-3.506l-6.612-4.296c1.217-1.854,2.208-3.908,2.922-6.118
			c0.716-2.221,1.11-4.457,1.211-6.683l7.875,0.382c0.141-1.449-0.007-2.906-0.05-4.358c-0.063-0.725-0.182-1.438-0.276-2.163
			c-0.097-0.717-0.193-1.433-0.38-2.14l-0.514-2.114c-0.198-0.701-0.451-1.381-0.685-2.064c-0.418-1.398-1.103-2.681-1.688-4.008
			l-7.063,3.586c-2.035-4.005-5.108-7.486-9-9.987l4.252-6.626c-2.417-1.629-5.11-2.759-7.835-3.735
			C479.872,313.681,477.018,313.019,474.104,312.927 M487.83,351.493c-2.765,8.563-11.951,13.259-20.514,10.494
			c-8.563-2.764-13.27-11.944-10.506-20.507c2.768-8.572,11.953-13.268,20.517-10.503
			C485.89,333.742,490.597,342.922,487.83,351.493"/>
		<path clip-path="url(#SVGID_2_)" fill="#DDDDDD" d="M570.035,266.821l-2.851-0.467c-0.945-0.15-1.896-0.342-2.863-0.364
			l-1.199,13.13c-5.97-0.548-11.876,0.324-17.304,2.402l-4.699-12.342l-0.686,0.241l-0.65,0.282l-1.321,0.597l-2.616,1.2
			l-2.516,1.427c-0.82,0.507-1.693,0.939-2.457,1.513l-2.356,1.681c-0.387,0.271-0.79,0.535-1.168,0.838l-1.095,0.939l-2.183,1.891
			c-0.728,0.644-1.349,1.369-2.033,2.056l9.509,9.128c-3.948,4.1-7.039,9.133-8.906,14.917l-0.031,0.096l-12.57-4.039
			c-0.493,1.857-1.06,3.701-1.445,5.583l-0.467,2.851c-0.156,0.962-0.315,1.904-0.35,2.878c-0.09,1.92-0.324,3.842-0.175,5.771
			l0.117,2.894c0.05,0.951,0.225,1.905,0.341,2.859l13.056-1.768c0.796,5.873,2.935,11.474,6.185,16.345l-10.986,7.316
			c1.127,1.561,2.15,3.203,3.47,4.613l1.892,2.183c0.645,0.72,1.368,1.35,2.054,2.033c0.706,0.652,1.381,1.343,2.127,1.96
			l2.273,1.776c1.478,1.249,3.165,2.208,4.78,3.241l6.755-11.298c2.476,1.475,5.159,2.697,8.016,3.62
			c2.866,0.925,5.749,1.499,8.632,1.744l-1.139,13.121c1.924,0.109,3.845,0.314,5.774,0.166l2.891-0.109
			c0.958-0.066,1.909-0.232,2.863-0.35c0.956-0.153,1.92-0.238,2.864-0.444l2.811-0.666c1.887-0.375,3.686-1.106,5.512-1.713
			l-4.635-12.36c5.485-2.05,10.486-5.347,14.574-9.643l9.549,9.065c0.652-0.706,1.36-1.375,1.957-2.118l1.788-2.279
			c1.24-1.48,2.183-3.174,3.224-4.786c0.55-0.807,0.963-1.668,1.399-2.54l1.287-2.585c0.788-1.752,1.406-3.579,2.101-5.371
			l-12.559-4.073l0.031-0.097c1.867-5.784,2.302-11.674,1.496-17.308l13.043-1.849c-0.146-0.954-0.224-1.906-0.448-2.856
			l-0.665-2.81l-0.339-1.402c-0.12-0.464-0.293-0.915-0.448-1.36l-0.938-2.744c-0.285-0.912-0.731-1.77-1.108-2.664L606,294.148
			l-1.429-2.507l-0.715-1.253l-0.372-0.612l-0.406-0.594l-11.027,7.265c-3.189-4.859-7.479-9.023-12.642-12.069l6.704-11.354
			c-0.798-0.547-1.673-0.945-2.537-1.378l-2.584-1.288c-1.759-0.771-3.579-1.406-5.375-2.092
			C573.761,267.773,571.92,267.228,570.035,266.821 M583.072,324.675c-4.144,12.835-17.901,19.886-30.736,15.741
			c-12.836-4.144-19.883-17.909-15.739-30.745c4.141-12.827,17.906-19.874,30.742-15.73
			C580.176,298.084,587.213,311.848,583.072,324.675"/>
		<path clip-path="url(#SVGID_2_)" fill="#DDDDDD" d="M198.833,252.263l-3.067,0.982c-0.983-3.085-2.948-5.739-5.518-7.593
			l1.882-2.599c-1.543-1.093-3.232-1.992-5.041-2.571c-1.799-0.569-3.691-0.872-5.573-0.89l-0.009,3.204h-0.055
			c-3.315,0-6.391,1.083-8.879,2.91l-1.891-2.58c-1.525,1.102-2.884,2.452-3.976,3.995c-1.102,1.533-2.011,3.213-2.58,5.022l3.048,1
			c-0.496,1.479-0.762,3.058-0.762,4.692c0,1.644,0.266,3.224,0.762,4.701l-3.048,1c0.569,1.81,1.478,3.489,2.58,5.023
			c1.092,1.533,2.451,2.892,3.976,3.993l1.891-2.58c2.488,1.827,5.564,2.901,8.879,2.901h0.055l0.009,3.214
			c1.882-0.027,3.774-0.33,5.573-0.899c1.809-0.569,3.498-1.47,5.041-2.562l-1.882-2.599c2.57-1.854,4.535-4.509,5.518-7.594
			l3.067,0.982c0.56-1.809,0.844-3.69,0.872-5.582C199.676,255.953,199.393,254.071,198.833,252.263 M181.919,267.706
			c-5.454,0-9.871-4.416-9.871-9.87s4.417-9.871,9.871-9.871c5.445,0,9.87,4.417,9.87,9.871S187.364,267.706,181.919,267.706"/>
		<path clip-path="url(#SVGID_2_)" fill="#DDDDDD" d="M131.548,246.148l-7.611,2.011c-1.185-4.471-3.554-8.464-6.74-11.633
			l5.583-5.619c-1.084-0.955-2.094-2.011-3.297-2.837c-0.578-0.432-1.148-0.882-1.753-1.285l-1.855-1.13
			c-0.615-0.395-1.267-0.716-1.919-1.028c-0.661-0.313-1.304-0.643-1.974-0.919c-1.368-0.486-2.709-1.074-4.132-1.386l-2.047,7.603
			c-2.149-0.588-4.407-0.9-6.74-0.9c-2.332,0-4.582,0.312-6.73,0.9l-2.047-7.603c-1.424,0.312-2.764,0.9-4.132,1.386
			c-0.671,0.276-1.322,0.606-1.974,0.919c-0.661,0.312-1.313,0.633-1.919,1.028l-1.855,1.13c-0.606,0.403-1.175,0.853-1.763,1.285
			c-1.193,0.826-2.204,1.882-3.287,2.837l5.582,5.619c-3.195,3.168-5.554,7.171-6.739,11.643l-7.612-2.021
			c-0.816,2.801-1.055,5.721-1.147,8.604c0.092,2.893,0.331,5.803,1.147,8.604l7.612-2.011c1.185,4.472,3.544,8.466,6.739,11.634
			l-5.582,5.619c1.083,0.964,2.094,2.011,3.287,2.837c0.588,0.432,1.157,0.881,1.763,1.285l1.855,1.139
			c0.606,0.395,1.258,0.707,1.919,1.02c0.652,0.312,1.303,0.643,1.974,0.927c1.368,0.486,2.708,1.074,4.132,1.387l2.056-7.611
			c2.139,0.587,4.398,0.899,6.721,0.899c2.333,0,4.582-0.313,6.73-0.899l2.057,7.611c1.423-0.313,2.764-0.9,4.132-1.387
			c0.67-0.284,1.313-0.615,1.974-0.927c0.652-0.313,1.304-0.625,1.919-1.02l1.855-1.139c0.605-0.404,1.175-0.854,1.753-1.285
			c1.203-0.826,2.213-1.873,3.297-2.837l-5.583-5.619c3.186-3.168,5.555-7.162,6.74-11.634l7.611,2.011
			c0.808-2.801,1.056-5.711,1.148-8.604C132.604,251.869,132.356,248.949,131.548,246.148 M99.063,271.059
			c-8.998,0-16.288-7.299-16.288-16.297s7.29-16.298,16.288-16.298c9.007,0,16.298,7.3,16.298,16.298S108.07,271.059,99.063,271.059
			"/>
		<path clip-path="url(#SVGID_2_)" fill="#DDDDDD" d="M203.262,326.02l-0.431-2.855c-0.147-0.946-0.257-1.91-0.533-2.838
			l-12.863,2.893c-1.313-5.849-3.957-11.201-7.603-15.729l10.302-8.264l-0.441-0.578l-0.468-0.532l-0.973-1.074l-1.947-2.121
			l-2.13-1.956c-0.734-0.624-1.414-1.322-2.194-1.873l-2.323-1.726c-0.377-0.285-0.753-0.588-1.157-0.855l-1.23-0.752l-2.47-1.497
			c-0.836-0.495-1.717-0.862-2.58-1.303l-5.766,11.854c-5.115-2.498-10.853-3.894-16.931-3.894h-0.102l-0.018-13.203
			c-1.919,0.101-3.847,0.13-5.757,0.34l-2.855,0.432c-0.964,0.146-1.91,0.284-2.847,0.551c-1.854,0.505-3.755,0.872-5.545,1.606
			l-2.718,1.001c-0.891,0.34-1.745,0.799-2.617,1.203l5.693,11.881c-5.344,2.562-10.018,6.317-13.653,10.907l-10.339-8.209
			c-1.138,1.553-2.387,3.031-3.324,4.721l-1.497,2.47c-0.486,0.836-0.862,1.717-1.303,2.58c-0.404,0.872-0.854,1.727-1.212,2.626
			l-0.992,2.709c-0.734,1.79-1.129,3.69-1.616,5.545l12.827,2.957c-0.643,2.811-0.982,5.738-0.982,8.741
			c0,3.012,0.339,5.931,0.991,8.75l-12.836,2.947c0.487,1.864,0.882,3.755,1.616,5.546l0.992,2.718
			c0.358,0.891,0.808,1.744,1.212,2.616c0.441,0.863,0.817,1.754,1.303,2.59l1.497,2.47c0.937,1.68,2.186,3.168,3.324,4.72
			l10.339-8.209c3.635,4.591,8.309,8.337,13.653,10.908l-5.693,11.872c0.872,0.403,1.726,0.872,2.617,1.212l2.718,1.001
			c1.79,0.725,3.691,1.102,5.545,1.597c0.937,0.276,1.883,0.404,2.847,0.552l2.855,0.431c1.91,0.212,3.838,0.239,5.757,0.349
			l0.018-13.202h0.102c6.078,0,11.816-1.396,16.931-3.894l5.766,11.845c0.863-0.432,1.744-0.799,2.58-1.304l2.47-1.497l1.23-0.753
			c0.404-0.257,0.78-0.56,1.157-0.845l2.323-1.735c0.78-0.551,1.46-1.24,2.194-1.873l2.13-1.946l1.947-2.13l0.973-1.065l0.468-0.542
			l0.441-0.569l-10.302-8.263c3.646-4.527,6.29-9.889,7.603-15.738l12.863,2.893c0.276-0.928,0.386-1.882,0.533-2.837l0.431-2.855
			c0.193-1.91,0.239-3.838,0.34-5.757C203.501,329.857,203.455,327.938,203.262,326.02 M152.212,356.199
			c-13.488,0-24.423-10.926-24.423-24.414s10.935-24.423,24.423-24.423c13.479,0,24.414,10.935,24.414,24.423
			S165.691,356.199,152.212,356.199"/>
		<path clip-path="url(#SVGID_2_)" fill="#CB5B3B" d="M514.807,367.21c-2.964,0-2.969,4.606,0,4.606
			C517.77,371.816,517.774,367.21,514.807,367.21"/>
		<path clip-path="url(#SVGID_2_)" fill="#CB5B3B" d="M507.604,247.652c-2.963,0-2.968,4.605,0,4.605
			C510.567,252.258,510.572,247.652,507.604,247.652"/>
		<path clip-path="url(#SVGID_2_)" fill="#CB5B3B" d="M535.453,235.168c-2.964,0-2.969,4.606,0,4.606
			C538.417,239.774,538.422,235.168,535.453,235.168"/>
		<path clip-path="url(#SVGID_2_)" fill="#CB5B3B" d="M508.084,226.045c-2.964,0-2.969,4.606,0,4.606
			C511.048,230.651,511.053,226.045,508.084,226.045"/>
		<path clip-path="url(#SVGID_2_)" fill="#CB5B3B" d="M76.427,293.267c-2.964,0-2.969,4.606,0,4.606
			C79.39,297.873,79.396,293.267,76.427,293.267"/>
		<path clip-path="url(#SVGID_2_)" fill="#CB5B3B" d="M90.832,330.719c-2.963,0-2.968,4.605,0,4.605
			C93.795,335.324,93.8,330.719,90.832,330.719"/>
		<path clip-path="url(#SVGID_2_)" fill="#CB5B3B" d="M65.864,323.517c-2.963,0-2.969,4.605,0,4.605
			C68.828,328.122,68.833,323.517,65.864,323.517"/>
		<path clip-path="url(#SVGID_2_)" fill="#CB5B3B" d="M146.049,258.216c-2.964,0-2.969,4.605,0,4.605
			C149.013,262.821,149.018,258.216,146.049,258.216"/>
		<path clip-path="url(#SVGID_2_)" fill="#CB5B3B" d="M96.113,205.879c-2.963,0-2.968,4.605,0,4.605
			C99.077,210.484,99.083,205.879,96.113,205.879"/>
		<path clip-path="url(#SVGID_2_)" fill="#191930" d="M309.458,113.352c-2.683,2.913-5.654,5.573-8.141,8.682
			c-2.499,3.097-4.479,6.621-5.884,10.34c-0.253,0.691-1.37,0.392-1.105-0.311c0.034-0.08,0.069-0.161,0.103-0.241
			c-1.669-0.749-2.568-2.396-2.821-4.18c-0.38-2.58,0.714-4.986,1.152-7.474c0.437-2.441-0.208-4.882-1.923-6.701
			c-0.783-0.829-1.751-1.497-2.833-1.877c-1.094-0.391-2.28-0.53-3.19-1.324c-1.531-1.348-1.45-3.581-1.773-5.424
			c-0.195-1.048-0.529-2.038-1.301-2.798c-0.714-0.713-1.67-1.14-2.637-1.404c-2.36-0.622-4.732-0.127-7.093,0.276
			c-2.556,0.437-5.17,0.702-7.611-0.357c-1.9-0.818-3.478-2.211-4.975-3.604c-1.52-1.394-3.028-2.856-4.893-3.789
			c-1.854-0.921-3.927-1.013-5.93-0.587c-4.065,0.875-7.612,3.282-11.653,4.226c-1.82,0.426-3.766,0.518-5.551-0.115
			c-1.98-0.691-3.511-2.119-4.824-3.708c-1.359-1.658-2.545-3.489-4.122-4.963c-1.786-1.669-4.065-2.303-6.299-3.155
			c-2.107-0.817-4.03-1.923-5.228-3.915c-1.117-1.842-1.508-4.122-1.036-6.229c0.506-2.315,2.176-4.031,3.489-5.919
			c0.679-0.979,1.255-2.027,1.462-3.201c0.219-1.335-0.023-2.694-0.264-4.007c-0.45-2.418-0.864-4.813,0.195-7.139
			c0.91-2.015,2.683-3.616,4.675-4.525c2.395-1.095,5.09-1.256,7.669-0.899c2.821,0.392,5.435,1.555,8.221,2.108
			c2.568,0.506,4.894,0.046,7.174-1.175c1.969-1.048,3.742-2.406,5.689-3.489c1.83-1.036,3.845-1.773,5.976-1.739
			c2.141,0.035,4.168,0.76,6.091,1.659c3.973,1.842,7.899,4.732,12.517,4.122c4.571-0.587,9.211-3.846,13.852-1.762
			c3.339,1.497,4.824,5.159,6.287,8.267c0.794,1.67,1.612,3.386,2.821,4.802c1.531,1.785,3.535,2.58,5.757,3.178
			c2.292,0.634,4.502,1.29,6.345,2.868c1.681,1.45,2.89,3.396,3.615,5.481c1.67,4.824,0.392,10.052-1.934,14.427
			c3.017,0.945,5.251,3.455,6.379,6.38C318.624,101.204,314.099,108.331,309.458,113.352"/>
		<path clip-path="url(#SVGID_2_)" fill="#ED8843" d="M301.92,120.061c-1.485,2.959-3.777,5.504-6.552,7.289v5.504
			c0,0.242,0,0.484-0.023,0.726c0.012,0.368-0.011,0.736-0.034,1.093c-0.219,4.088-1.175,7.98-2.752,11.55c0,0,0,0.011-0.012,0.023
			c-5.182,11.825-17.03,20.139-30.721,20.139c-6.241,0-12.091-1.727-17.111-4.733c-9.811-5.861-16.42-16.592-16.42-28.798V87.302
			c0.184-0.173,0.276-0.277,0.46-0.449c3.697,0.011,7.324-1.44,10.133-3.823c2.994-2.556,7.22-3.178,10.824-1.601
			c2.303,1.013,4.836,1.497,7.347,1.336c1.623-0.104,3.224-0.473,4.732-1.071c4.191-1.67,8.936-0.633,11.837,2.809
			c0.587,0.703,1.232,1.348,1.935,1.935c1.255,1.048,2.66,1.889,4.168,2.51c3.616,1.497,6.276,4.813,6.564,8.728
			c0.241,3.224,1.6,6.368,3.937,8.614c0.565-2.062,2.177-3.812,4.192-4.491c0.311-0.104,0.622-0.184,0.944-0.242
			c2.004-0.346,4.169,0.276,5.654,1.692c1.52,1.428,2.257,3.501,2.591,5.562C304.247,112.611,303.636,116.618,301.92,120.061"/>
		<g opacity="0.3" clip-path="url(#SVGID_2_)">
			<g>
				<defs>
					<rect id="SVGID_3_" x="235.199" y="105.874" width="15.844" height="29.213"/>
				</defs>
				<clipPath id="SVGID_4_">
					<use xlink:href="#SVGID_3_"  overflow="visible"/>
				</clipPath>
				<polygon clip-path="url(#SVGID_4_)" fill="#191930" points="243.041,105.874 251.043,135.086 235.2,135.086 				"/>
			</g>
		</g>
		<path clip-path="url(#SVGID_2_)" fill="#ED8843" d="M297.027,165.637c-2.441,13.023-18.47,29.455-34.429,29.132
			c-15.96-0.322-20.531-17.283-20.531-17.283l1.969-11.93l0.633-3.834l0.046-0.069c5.02,3.005,10.87,4.733,17.111,4.733
			c17.837,0,32.541-14.106,33.485-31.712h0.058L297.027,165.637z"/>
		<path clip-path="url(#SVGID_2_)" fill="#191930" d="M292.547,146.246c-0.23,0.898-9.027,32.541-49.583,25.816l1.751-10.409
			c5.02,3.005,10.87,4.733,17.111,4.733C275.518,166.386,287.365,158.072,292.547,146.246"/>
		<g opacity="0.3" clip-path="url(#SVGID_2_)">
			<g>
				<defs>
					<rect id="SVGID_5_" x="268.172" y="114.959" width="17.807" height="17.807"/>
				</defs>
				<clipPath id="SVGID_6_">
					<use xlink:href="#SVGID_5_"  overflow="visible"/>
				</clipPath>
				<path clip-path="url(#SVGID_6_)" fill="#191930" d="M285.979,123.862c0,4.917-3.986,8.903-8.903,8.903
					c-4.918,0-8.904-3.986-8.904-8.903s3.986-8.904,8.904-8.904C281.993,114.958,285.979,118.945,285.979,123.862"/>
			</g>
		</g>
		<path clip-path="url(#SVGID_2_)" fill="#191930" d="M263.418,133.56c-1.725,5.097-6.733,8.275-12.062,7.885
			c-1.479-0.109-1.472,2.195,0,2.303c6.379,0.467,12.246-3.557,14.283-9.576C266.115,132.765,263.891,132.162,263.418,133.56"/>
		<g opacity="0.3" clip-path="url(#SVGID_2_)">
			<g>
				<defs>
					<rect id="SVGID_7_" x="255.282" y="98.74" width="10.44" height="14.062"/>
				</defs>
				<clipPath id="SVGID_8_">
					<use xlink:href="#SVGID_7_"  overflow="visible"/>
				</clipPath>
				<path clip-path="url(#SVGID_8_)" fill="#191930" d="M265.722,106.029c0,4.025-2.337,6.772-5.22,6.772
					c-2.883,0-5.22-2.747-5.22-6.772c0-4.026,2.337-7.289,5.22-7.289C263.385,98.74,265.722,102.003,265.722,106.029"/>
			</g>
		</g>
		<path clip-path="url(#SVGID_2_)" fill="#191930" d="M264.922,107.159c0,3.117-1.979,5.643-4.42,5.643s-4.42-2.526-4.42-5.643
			c0-3.116,1.979-5.643,4.42-5.643S264.922,104.042,264.922,107.159"/>
		<path clip-path="url(#SVGID_2_)" fill="#191930" d="M268.126,93.947c-0.302-0.469-0.798-0.972-1.376-1.059l-7.626-1.141
			c-0.636-0.095-1.197-0.106-1.774,0.232c-0.478,0.28-0.934,0.828-1.059,1.377c-0.134,0.589-0.105,1.251,0.232,1.774
			c0.303,0.469,0.799,0.972,1.376,1.059l7.626,1.141c0.637,0.095,1.197,0.106,1.775-0.232c0.478-0.28,0.933-0.827,1.058-1.377
			C268.494,95.132,268.464,94.47,268.126,93.947"/>
		<g opacity="0.3" clip-path="url(#SVGID_2_)">
			<g>
				<defs>
					<rect id="SVGID_9_" x="229.386" y="98.74" width="10.44" height="14.062"/>
				</defs>
				<clipPath id="SVGID_10_">
					<use xlink:href="#SVGID_9_"  overflow="visible"/>
				</clipPath>
				<path clip-path="url(#SVGID_10_)" fill="#191930" d="M239.826,106.029c0,4.025-2.337,6.772-5.22,6.772
					c-2.883,0-5.22-2.747-5.22-6.772c0-4.026,2.337-7.289,5.22-7.289C237.489,98.74,239.826,102.003,239.826,106.029"/>
			</g>
		</g>
		<path clip-path="url(#SVGID_2_)" fill="#191930" d="M239.026,107.159c0,3.117-1.979,5.643-4.42,5.643s-4.42-2.526-4.42-5.643
			c0-3.116,1.979-5.643,4.42-5.643S239.026,104.042,239.026,107.159"/>
		<path clip-path="url(#SVGID_2_)" fill="#191930" d="M227.491,94.601c0.302-0.469,0.798-0.972,1.376-1.059l7.626-1.141
			c0.636-0.095,1.197-0.106,1.774,0.233c0.478,0.279,0.934,0.827,1.059,1.376c0.134,0.59,0.105,1.251-0.232,1.775
			c-0.303,0.468-0.799,0.971-1.376,1.058l-7.626,1.141c-0.637,0.095-1.197,0.106-1.775-0.232c-0.478-0.28-0.933-0.827-1.058-1.377
			C227.124,95.786,227.154,95.124,227.491,94.601"/>
		<path clip-path="url(#SVGID_2_)" fill="#191930" d="M249.843,134.271l-13.625,0.133l7.691-28.015
			c0.196-0.716-0.915-1.021-1.11-0.306c-2.631,9.584-5.262,19.167-7.893,28.751c-0.098,0.358,0.181,0.732,0.555,0.729l14.382-0.141
			C250.584,135.416,250.585,134.265,249.843,134.271"/>
		<path clip-path="url(#SVGID_2_)" fill="#191930" d="M301.261,106.646c-0.78-0.942-2.074-1.289-3.246-0.988
			c-1.323,0.341-2.342,1.42-2.899,2.63c-1.291,2.802-1.107,6.314-0.186,9.191c0.186,0.58,0.899,0.508,1.11,0
			c0.259-0.624,1.132-0.631,1.609-0.3c0.591,0.411,0.837,1.181,0.851,1.873c0.033,1.632-1.133,2.93-2.685,3.276
			c-0.723,0.161-0.417,1.272,0.306,1.11c2.439-0.543,4.149-3.117,3.34-5.576c-0.324-0.983-1.087-1.875-2.153-2.03
			c-0.574-0.084-1.106,0.057-1.544,0.347c-0.503-2.068-0.554-4.258,0.004-6.319c0.291-1.074,0.816-2.147,1.787-2.758
			c0.952-0.599,2.154-0.533,2.892,0.358C300.92,108.032,301.731,107.213,301.261,106.646"/>
		<path clip-path="url(#SVGID_2_)" fill="#CB5B3B" d="M330.949,274.06l13.576,108.93h-148.23l8.325-145.328l-28.383,5.976
			l-1.371-4.756l-14.232-49.237l-0.622-2.13c0,0,30.334-20.681,47.699-20.531c13.875,0.116,36.324-1.427,36.324-1.427l-1.968,11.929
			c0,0,4.571,16.961,20.53,17.283c15.96,0.323,31.988-16.109,34.43-29.132c0,0,37.768,11.515,56.33,25.92
			c18.562,14.405,26.253,75.767,26.253,75.767l-3.374,0.473L330.949,274.06z"/>
		<polygon clip-path="url(#SVGID_2_)" fill="#ED8843" points="381.004,382.989 344.525,382.989 330.949,274.06 376.237,267.796 		
			"/>
		<path clip-path="url(#SVGID_2_)" fill="#ED8843" d="M174.867,238.882c-5.953,1.198-31.677,6.114-48.685,5.043
			c-7.162-0.46-12.793-1.991-14.715-5.296c-1.647-2.833-2.637-9.396-3.19-17.825c-1.843-28.027,1.163-76.608,1.163-76.608
			s-4.318-31.078-2.395-36.813c1.911-5.734,8.153-3.684,8.153-3.684c0.863-5.919,5.342-4.537,5.342-4.537s-0.138-3.201,2.556-4.479
			c2.384-1.129,13.127,4.675,15.568,6.022c0.323,0.173,0.495,0.277,0.495,0.277c3.121-0.645,16.167,10.167,15.522,17.272
			c-0.045,0.46-0.161,0.967-0.345,1.497c-0.852,2.475-3.12,5.676-5.815,8.877c-5.734,6.806-13.368,13.645-13.368,13.645l9.28,53.936
			l16.202-6.564L174.867,238.882z"/>
		<g opacity="0.3" clip-path="url(#SVGID_2_)">
			<g>
				<defs>
					<rect id="SVGID_11_" x="367.045" y="313.49" width="12.457" height="33.213"/>
				</defs>
				<clipPath id="SVGID_12_">
					<use xlink:href="#SVGID_11_"  overflow="visible"/>
				</clipPath>
				<path clip-path="url(#SVGID_12_)" fill="#191930" d="M379.502,346.703c-6.586-0.115-11.482-7.64-12.38-16.104
					c-0.83-7.956,5.226-15.049,11.006-17.11L379.502,346.703z"/>
			</g>
		</g>
		<g opacity="0.3" clip-path="url(#SVGID_2_)">
			<g>
				<defs>
					<rect id="SVGID_13_" x="108.277" y="219.422" width="20.473" height="24.503"/>
				</defs>
				<clipPath id="SVGID_14_">
					<use xlink:href="#SVGID_13_"  overflow="visible"/>
				</clipPath>
				<path clip-path="url(#SVGID_14_)" fill="#191930" d="M128.75,235.048c0,3.305-0.944,6.356-2.568,8.877
					c-7.162-0.46-12.793-1.991-14.716-5.296c-1.646-2.833-2.636-9.396-3.189-17.825c1.819-0.887,3.834-1.382,5.964-1.382
					C122.256,219.422,128.75,226.412,128.75,235.048"/>
			</g>
		</g>
		<path clip-path="url(#SVGID_2_)" fill="#191930" d="M141.547,176.722c-0.665-3.762-1.329-7.523-1.994-11.285
			c-0.128-0.728-1.238-0.419-1.11,0.306c2.343,13.26,4.685,26.519,7.027,39.778c0.665,3.761,1.329,7.523,1.994,11.284
			c0.129,0.729,1.239,0.42,1.11-0.306C146.232,203.24,143.891,189.981,141.547,176.722"/>
		<path clip-path="url(#SVGID_2_)" fill="#191930" d="M207.754,203.274c-1.749,11.371-2.95,22.821-3.588,34.308
			c-0.041,0.74,1.11,0.738,1.152,0c0.632-11.384,1.813-22.733,3.546-34.002C208.976,202.855,207.867,202.543,207.754,203.274"/>
		<path clip-path="url(#SVGID_2_)" fill="#191930" d="M372.943,267.22c-14.542,2.257-29.085,4.515-43.627,6.771
			c-3.922,0.61-7.844,1.219-11.767,1.828l-3.769-33.811c-0.36-3.233-0.72-6.466-1.08-9.698c-0.081-0.726-1.234-0.757-1.152-0.022
			l3.848,34.513l1.081,9.697c0.052,0.472,0.552,0.645,0.877,0.511c14.504-2.252,29.007-4.503,43.511-6.755l12.363-1.919
			C373.96,268.222,373.672,267.106,372.943,267.22"/>
		<path clip-path="url(#SVGID_2_)" fill="#191930" d="M144.191,117.47c-1.728-0.104-3.455,0.069-5.124,0.518
			c-2.073,0.542-4.03,1.497-5.723,2.833c-2.856,2.268-4.836,5.469-5.642,9.016c-0.161,0.725-1.279,0.415-1.117-0.3
			c1.381-6.045,5.964-10.72,11.653-12.482c1.543-0.472,3.178-0.736,4.848-0.748c-0.957-1.381-1.9-2.763-2.856-4.157
			c-1.037-1.496-2.211-2.971-2.936-4.652c-0.588-1.359-0.841-2.867-0.323-4.283c0.242-0.68,0.622-1.278,1.129-1.739
			c0.38-0.357,0.852-0.633,1.393-0.795c0.714-0.218,1.013,0.899,0.299,1.106c-0.357,0.115-0.668,0.299-0.933,0.541
			c-0.587,0.53-0.92,1.336-1.013,2.154c-0.15,1.427,0.53,2.798,1.267,3.972c1.727,2.798,3.707,5.447,5.573,8.153
			C144.928,116.952,144.606,117.493,144.191,117.47"/>
		<path clip-path="url(#SVGID_2_)" fill="#191930" d="M133.67,108.423c-0.366-0.644-1.361-0.064-0.994,0.582
			c0.353,0.621,0.286,1.418-0.177,1.973c-0.612,0.732-1.718,0.651-2.522,0.331c-1.542-0.614-2.922-1.934-4.041-3.128
			c-0.078-0.082-0.148-0.172-0.224-0.256c-0.012-0.028-0.021-0.058-0.034-0.086c-0.064-0.148-0.164-0.227-0.274-0.267
			c-2.006-2.345-3.389-5.178-4.006-8.207c-0.148-0.725-1.259-0.418-1.111,0.307c0.64,3.138,2.077,6.072,4.13,8.528
			c0.095,0.114,0.21,0.21,0.308,0.322c0.989,2.326,1.552,5.014,1.309,7.543c-0.109,1.13-0.633,2.149-1.854,2.316
			c-1.188,0.164-2.242-0.544-3.043-1.345c-0.406-1.742-0.933-3.465-1.531-5.134c-0.981-2.735-2.209-5.377-3.66-7.894
			c-0.37-0.642-1.365-0.063-0.994,0.581c2.181,3.785,3.839,7.849,4.9,12.088c0.463,1.848,1.472,4.672,0.08,6.332
			c-1.511,1.801-4.035,0.281-5.311-0.964c-1.632-1.592-2.786-3.593-3.402-5.783c-0.201-0.712-1.312-0.409-1.111,0.307
			c0.617,2.189,1.733,4.214,3.292,5.875c1.462,1.561,3.573,3.034,5.818,2.345c2.291-0.704,2.725-3.162,2.413-5.244
			c-0.036-0.247-0.091-0.492-0.135-0.738c0.753,0.484,1.607,0.795,2.522,0.742c1.429-0.084,2.555-0.961,2.965-2.334
			c0.426-1.426,0.266-3.077,0.069-4.526c-0.109-0.801-0.277-1.584-0.491-2.354c0.469,0.404,0.939,0.808,1.445,1.164
			c1.323,0.93,3.052,1.659,4.613,0.836C134.006,111.604,134.421,109.744,133.67,108.423"/>
		<path clip-path="url(#SVGID_2_)" fill="#CB5B3B" d="M143.086,116.308c-1.67,0.011-3.305,0.276-4.848,0.748l-23.651-26.622
			l-2.314-10.317l9.971,3.512l15.856,17.848c-0.507,0.46-0.887,1.059-1.128,1.739c-0.519,1.416-0.265,2.924,0.322,4.283
			c0.726,1.681,1.9,3.155,2.936,4.652C141.186,113.543,142.13,114.926,143.086,116.308"/>
		<path clip-path="url(#SVGID_2_)" fill="#CB5B3B" d="M154.485,135.341l-5.964-6.713c2.694-3.201,4.963-6.402,5.815-8.878
			l7.806,8.786L154.485,135.341"/>
		<polygon clip-path="url(#SVGID_2_)" fill="#191930" points="114.583,90.434 122.242,83.631 112.27,80.118 		"/>
		<path clip-path="url(#SVGID_2_)" fill="#191930" d="M161.33,127.873c-3.232,0.978-6.018,3.216-7.65,6.175
			c-0.358,0.649,0.636,1.231,0.994,0.581c1.49-2.7,4.008-4.752,6.962-5.646C162.344,128.769,162.042,127.658,161.33,127.873"/>
		<path clip-path="url(#SVGID_2_)" fill="#191930" d="M108.725,76.33c-0.254,0-0.486-0.169-0.556-0.425
			c-0.083-0.307,0.098-0.623,0.405-0.706c1.118-0.304,2.244-0.586,3.377-0.846c0.312-0.075,0.619,0.123,0.69,0.433
			c0.07,0.309-0.123,0.618-0.434,0.689c-1.117,0.256-2.227,0.536-3.331,0.834C108.825,76.324,108.773,76.33,108.725,76.33"/>
		<path clip-path="url(#SVGID_2_)" fill="#191930" d="M150.166,280.238c-1.811,0-3.647-0.044-5.455-0.13
			c-0.319-0.015-0.564-0.284-0.548-0.602c0.015-0.317,0.287-0.593,0.602-0.548c2.278,0.107,4.585,0.145,6.865,0.118
			c0.358-0.031,0.579,0.251,0.582,0.569c0.004,0.318-0.25,0.579-0.569,0.582C151.15,280.234,150.658,280.238,150.166,280.238
			 M158.527,279.929c-0.299,0-0.552-0.229-0.574-0.532c-0.022-0.316,0.215-0.594,0.532-0.617l0.229-0.018
			c2.195-0.167,4.417-0.397,6.604-0.687c0.307-0.041,0.605,0.179,0.647,0.496c0.042,0.314-0.181,0.605-0.496,0.646
			c-2.208,0.29-4.452,0.524-6.668,0.693l-0.231,0.017C158.557,279.929,158.542,279.929,158.527,279.929 M137.862,279.581
			c-0.022,0-0.042-0.001-0.062-0.003c-2.28-0.243-4.592-0.558-6.871-0.937c-0.313-0.052-0.525-0.349-0.473-0.663
			c0.053-0.313,0.342-0.526,0.662-0.473c2.257,0.374,4.546,0.687,6.803,0.928c0.317,0.033,0.546,0.316,0.512,0.633
			C138.4,279.362,138.151,279.581,137.862,279.581 M172.205,278.133c-0.271,0-0.513-0.192-0.565-0.469
			c-0.06-0.313,0.147-0.614,0.459-0.673c2.215-0.417,4.474-0.905,6.714-1.449c0.312-0.074,0.621,0.113,0.695,0.423
			c0.075,0.31-0.114,0.621-0.423,0.695c-2.26,0.55-4.538,1.042-6.773,1.463C172.276,278.13,172.241,278.133,172.205,278.133
			 M124.251,277.321c-0.042,0-0.085-0.005-0.127-0.015c-2.238-0.506-4.497-1.088-6.715-1.727c-0.305-0.088-0.482-0.407-0.394-0.713
			c0.087-0.305,0.401-0.483,0.713-0.394c2.196,0.633,4.434,1.208,6.65,1.711c0.31,0.069,0.505,0.377,0.434,0.688
			C124.751,277.14,124.515,277.321,124.251,277.321 M185.606,274.87c-0.248,0-0.476-0.161-0.552-0.411
			c-0.09-0.305,0.084-0.626,0.388-0.717c2.172-0.648,4.37-1.364,6.533-2.128c0.294-0.106,0.628,0.05,0.735,0.352
			c0.105,0.3-0.052,0.629-0.352,0.734c-2.18,0.77-4.397,1.491-6.586,2.145C185.718,274.861,185.662,274.87,185.606,274.87
			 M110.996,273.501c-0.062,0-0.128-0.01-0.191-0.032c-2.174-0.765-4.351-1.603-6.47-2.491c-0.294-0.122-0.431-0.46-0.308-0.753
			c0.122-0.294,0.458-0.432,0.753-0.309c2.099,0.879,4.254,1.708,6.407,2.466c0.301,0.106,0.458,0.435,0.352,0.734
			C111.456,273.353,111.233,273.501,110.996,273.501 M198.619,270.288c-0.227,0-0.443-0.136-0.534-0.36
			c-0.119-0.294,0.023-0.629,0.318-0.75c2.085-0.844,4.209-1.759,6.311-2.721c0.29-0.129,0.632-0.003,0.763,0.285
			c0.132,0.289,0.005,0.631-0.284,0.763c-2.118,0.968-4.257,1.89-6.358,2.742C198.764,270.275,198.69,270.288,198.619,270.288
			 M98.273,268.173c-0.086,0-0.172-0.019-0.253-0.058c-2.08-1.021-4.144-2.106-6.134-3.231c-0.277-0.156-0.374-0.508-0.218-0.784
			c0.156-0.278,0.507-0.375,0.785-0.219c1.97,1.114,4.013,2.19,6.073,3.199c0.285,0.14,0.404,0.485,0.264,0.771
			C98.69,268.056,98.487,268.173,98.273,268.173 M211.163,264.557c-0.208,0-0.411-0.114-0.512-0.314
			c-0.145-0.283-0.031-0.63,0.252-0.773c2.011-1.023,4.053-2.112,6.069-3.235c0.275-0.154,0.627-0.057,0.782,0.223
			c0.156,0.277,0.055,0.627-0.222,0.782c-2.028,1.132-4.082,2.227-6.107,3.256C211.341,264.537,211.25,264.557,211.163,264.557
			 M86.269,261.385c-0.108,0-0.217-0.03-0.314-0.092c-1.945-1.264-3.863-2.591-5.7-3.948c-0.256-0.188-0.31-0.549-0.121-0.805
			c0.19-0.255,0.552-0.307,0.805-0.121c1.818,1.343,3.718,2.657,5.644,3.906c0.266,0.174,0.342,0.53,0.169,0.798
			C86.642,261.293,86.457,261.385,86.269,261.385 M223.216,257.841c-0.195,0-0.384-0.1-0.492-0.277
			c-0.165-0.271-0.078-0.626,0.193-0.791c1.946-1.181,3.904-2.417,5.818-3.672c0.267-0.176,0.624-0.102,0.797,0.165
			c0.174,0.267,0.1,0.623-0.165,0.798c-1.926,1.263-3.895,2.505-5.852,3.693C223.421,257.813,223.317,257.841,223.216,257.841
			 M75.178,253.187c-0.131,0-0.262-0.044-0.37-0.136c-1.769-1.487-3.506-3.045-5.164-4.631c-0.229-0.22-0.237-0.584-0.018-0.813
			c0.221-0.228,0.585-0.238,0.815-0.019c1.639,1.569,3.357,3.111,5.108,4.582c0.243,0.204,0.275,0.567,0.07,0.811
			C75.504,253.116,75.342,253.187,75.178,253.187 M234.759,250.282c-0.181,0-0.359-0.085-0.471-0.245
			c-0.184-0.26-0.121-0.618,0.14-0.802c1.866-1.31,3.74-2.67,5.571-4.043c0.253-0.19,0.614-0.139,0.806,0.116
			c0.19,0.254,0.139,0.615-0.116,0.806c-1.84,1.38-3.724,2.747-5.6,4.063C234.989,250.249,234.873,250.282,234.759,250.282
			 M65.215,243.651c-0.156,0-0.311-0.063-0.425-0.187l-0.705-0.776c-1.302-1.448-2.583-2.96-3.809-4.492
			c-0.197-0.249-0.158-0.611,0.091-0.81c0.25-0.197,0.611-0.157,0.809,0.09c1.211,1.515,2.478,3.01,3.766,4.441l0.698,0.771
			c0.215,0.235,0.198,0.599-0.037,0.813C65.493,243.602,65.353,243.651,65.215,243.651 M245.806,242.012
			c-0.169,0-0.337-0.074-0.451-0.217c-0.198-0.25-0.156-0.612,0.092-0.81c1.78-1.414,3.574-2.882,5.33-4.359
			c0.244-0.205,0.607-0.175,0.812,0.071c0.205,0.242,0.173,0.606-0.071,0.81c-1.764,1.484-3.566,2.959-5.354,4.38
			C246.058,241.971,245.932,242.012,245.806,242.012 M256.372,233.132c-0.158,0-0.316-0.066-0.43-0.194
			c-0.212-0.238-0.189-0.602,0.05-0.813c1.691-1.499,3.408-3.057,5.099-4.632c0.234-0.215,0.596-0.203,0.814,0.03
			c0.216,0.233,0.204,0.597-0.029,0.814c-1.699,1.58-3.422,3.145-5.122,4.65C256.645,233.084,256.509,233.132,256.372,233.132
			 M56.598,232.883c-0.181,0-0.361-0.086-0.472-0.246c-1.311-1.881-2.582-3.838-3.778-5.818c-0.164-0.272-0.078-0.626,0.194-0.79
			c0.272-0.163,0.626-0.078,0.791,0.194c1.184,1.959,2.441,3.895,3.738,5.755c0.182,0.261,0.117,0.62-0.143,0.802
			C56.828,232.849,56.711,232.883,56.598,232.883 M266.478,223.73c-0.149,0-0.299-0.057-0.412-0.173
			c-0.222-0.228-0.217-0.593,0.011-0.815c1.644-1.603,3.273-3.222,4.887-4.856c0.222-0.225,0.587-0.228,0.814-0.004
			c0.226,0.223,0.228,0.588,0.005,0.814c-1.619,1.639-3.252,3.263-4.903,4.871C266.768,223.676,266.623,223.73,266.478,223.73
			 M49.466,221.079c-0.207,0-0.408-0.112-0.511-0.31c-1.061-2.038-2.071-4.142-3.003-6.252c-0.13-0.291,0.002-0.631,0.293-0.759
			c0.289-0.129,0.632,0.002,0.759,0.294c0.923,2.087,1.923,4.169,2.972,6.186c0.147,0.282,0.037,0.629-0.245,0.776
			C49.646,221.059,49.556,221.079,49.466,221.079 M276.182,213.916c-0.143,0-0.286-0.053-0.398-0.159
			c-0.23-0.22-0.239-0.584-0.018-0.814c1.586-1.662,3.159-3.336,4.722-5.02c0.217-0.234,0.584-0.247,0.814-0.032
			c0.232,0.217,0.247,0.581,0.03,0.814c-1.565,1.689-3.143,3.368-4.734,5.033C276.484,213.856,276.333,213.916,276.182,213.916
			 M43.888,208.465c-0.234,0-0.454-0.144-0.539-0.377c-0.799-2.163-1.538-4.377-2.197-6.579c-0.091-0.304,0.082-0.625,0.387-0.716
			c0.31-0.092,0.625,0.082,0.717,0.386c0.652,2.179,1.383,4.37,2.172,6.511c0.11,0.298-0.042,0.63-0.341,0.739
			C44.021,208.454,43.955,208.465,43.888,208.465 M285.566,203.798c-0.139,0-0.276-0.049-0.386-0.149
			c-0.236-0.213-0.254-0.577-0.042-0.813c1.541-1.705,3.071-3.419,4.595-5.141c0.21-0.238,0.575-0.26,0.812-0.049
			c0.238,0.211,0.261,0.574,0.049,0.813c-1.526,1.723-3.058,3.441-4.601,5.149C285.879,203.734,285.724,203.798,285.566,203.798
			 M39.936,195.251c-0.261,0-0.499-0.18-0.561-0.447c-0.521-2.25-0.976-4.538-1.35-6.802c-0.051-0.314,0.159-0.611,0.473-0.662
			c0.319-0.054,0.612,0.159,0.663,0.474c0.371,2.239,0.821,4.505,1.337,6.731c0.072,0.31-0.122,0.619-0.431,0.691
			C40.022,195.246,39.979,195.251,39.936,195.251 M294.71,193.463c-0.134,0-0.269-0.047-0.378-0.141
			c-0.239-0.209-0.265-0.573-0.056-0.813c1.508-1.734,3.009-3.475,4.506-5.221c0.209-0.242,0.572-0.269,0.812-0.062
			c0.241,0.207,0.27,0.57,0.063,0.812c-1.499,1.747-3.003,3.49-4.513,5.227C295.032,193.396,294.872,193.463,294.71,193.463
			 M599.958,190.983c-0.076,0-0.152-0.014-0.227-0.046c-0.292-0.125-0.429-0.463-0.304-0.755c0.889-2.086,1.692-4.244,2.388-6.414
			c0.097-0.304,0.42-0.469,0.724-0.373c0.304,0.097,0.471,0.421,0.373,0.724c-0.707,2.204-1.522,4.396-2.425,6.514
			C600.394,190.852,600.182,190.983,599.958,190.983 M303.7,182.991c-0.131,0-0.264-0.045-0.373-0.137
			c-0.242-0.206-0.271-0.57-0.065-0.812c1.489-1.752,2.975-3.507,4.462-5.262c0.207-0.243,0.571-0.271,0.812-0.068
			c0.242,0.206,0.272,0.569,0.067,0.812c-1.487,1.756-2.974,3.511-4.464,5.264C304.024,182.922,303.863,182.991,303.7,182.991
			 M37.683,181.645c-0.291,0-0.542-0.221-0.571-0.517c-0.231-2.291-0.389-4.62-0.469-6.922c-0.011-0.318,0.238-0.585,0.556-0.595
			c0.32-0.035,0.584,0.237,0.595,0.555c0.079,2.278,0.236,4.58,0.463,6.846c0.032,0.316-0.198,0.599-0.515,0.63
			C37.723,181.644,37.704,181.645,37.683,181.645 M604.171,177.861c-0.042,0-0.083-0.005-0.126-0.014
			c-0.311-0.069-0.506-0.377-0.437-0.688c0.495-2.204,0.901-4.472,1.209-6.742c0.042-0.315,0.32-0.531,0.647-0.493
			c0.315,0.043,0.536,0.333,0.493,0.648c-0.312,2.302-0.725,4.603-1.225,6.839C604.673,177.679,604.436,177.861,604.171,177.861
			 M312.619,172.458c-0.132,0-0.264-0.044-0.373-0.136c-0.243-0.205-0.273-0.568-0.067-0.811c1.485-1.757,2.972-3.513,4.462-5.267
			c0.206-0.242,0.57-0.272,0.811-0.066c0.242,0.205,0.272,0.569,0.066,0.812c-1.488,1.752-2.975,3.508-4.46,5.264
			C312.944,172.389,312.782,172.458,312.619,172.458 M37.209,167.863h-0.018c-0.319-0.011-0.568-0.276-0.558-0.594
			c0.074-2.309,0.227-4.638,0.457-6.923c0.031-0.318,0.332-0.541,0.629-0.516c0.316,0.033,0.548,0.314,0.515,0.631
			c-0.226,2.259-0.378,4.562-0.449,6.845C37.774,167.617,37.52,167.863,37.209,167.863 M606.028,164.203
			c-0.011,0-0.021,0-0.032-0.001c-0.316-0.017-0.56-0.288-0.543-0.605c0.076-1.469,0.115-2.977,0.115-4.482
			c0.002-0.791-0.01-1.581-0.031-2.372c-0.008-0.317,0.243-0.582,0.561-0.59h0.016c0.312,0,0.566,0.248,0.575,0.56
			c0.021,0.801,0.033,1.603,0.031,2.403c0,1.524-0.039,3.052-0.117,4.541C606.586,163.965,606.332,164.203,606.028,164.203
			 M321.553,161.939c-0.133,0-0.266-0.045-0.375-0.138c-0.242-0.207-0.27-0.57-0.063-0.812c1.497-1.748,2.997-3.494,4.503-5.233
			c0.208-0.242,0.572-0.267,0.812-0.059c0.241,0.208,0.267,0.572,0.059,0.812c-1.505,1.738-3.005,3.482-4.499,5.229
			C321.875,161.871,321.713,161.939,321.553,161.939 M38.592,154.143c-0.033,0-0.065-0.003-0.098-0.009
			c-0.314-0.053-0.524-0.351-0.471-0.664c0.39-2.279,0.867-4.564,1.417-6.795c0.075-0.308,0.384-0.498,0.696-0.421
			c0.309,0.076,0.498,0.388,0.422,0.696c-0.544,2.205-1.015,4.463-1.399,6.714C39.109,153.945,38.866,154.143,38.592,154.143
			 M330.591,151.509c-0.135,0-0.271-0.047-0.38-0.143c-0.24-0.21-0.263-0.574-0.052-0.813c1.521-1.728,3.05-3.45,4.587-5.162
			c0.213-0.236,0.577-0.254,0.813-0.044c0.237,0.213,0.257,0.577,0.044,0.813c-1.536,1.71-3.062,3.429-4.581,5.154
			C330.909,151.443,330.75,151.509,330.591,151.509 M605.662,150.418c-0.292,0-0.542-0.22-0.571-0.516
			c-0.232-2.249-0.555-4.535-0.956-6.792c-0.055-0.313,0.152-0.612,0.466-0.668c0.319-0.056,0.613,0.153,0.668,0.466
			c0.406,2.285,0.732,4.599,0.967,6.875c0.033,0.316-0.196,0.599-0.513,0.632C605.702,150.417,605.683,150.418,605.662,150.418
			 M339.817,141.245c-0.14,0-0.28-0.05-0.391-0.152c-0.233-0.215-0.248-0.58-0.033-0.813c1.56-1.695,3.13-3.379,4.715-5.051
			c0.222-0.231,0.585-0.239,0.813-0.022c0.231,0.219,0.24,0.583,0.023,0.814c-1.583,1.668-3.149,3.347-4.704,5.038
			C340.128,141.182,339.973,141.245,339.817,141.245 M41.892,140.755c-0.06,0-0.119-0.01-0.179-0.029
			c-0.302-0.099-0.467-0.423-0.368-0.726c0.714-2.188,1.519-4.38,2.39-6.515c0.12-0.296,0.454-0.435,0.751-0.316
			c0.294,0.12,0.435,0.457,0.315,0.751c-0.861,2.11-1.656,4.276-2.361,6.438C42.359,140.6,42.135,140.755,41.892,140.755
			 M603.25,136.839c-0.258,0-0.492-0.174-0.558-0.435c-0.558-2.204-1.201-4.42-1.913-6.59c-0.1-0.302,0.065-0.627,0.367-0.726
			c0.301-0.1,0.627,0.065,0.725,0.368c0.723,2.194,1.373,4.436,1.937,6.665c0.079,0.308-0.107,0.622-0.416,0.7
			C603.344,136.833,603.296,136.839,603.25,136.839 M349.312,131.232c-0.146,0-0.292-0.055-0.403-0.165
			c-0.227-0.222-0.231-0.587-0.009-0.814c1.61-1.643,3.239-3.275,4.882-4.892c0.227-0.223,0.592-0.221,0.813,0.006
			c0.223,0.227,0.221,0.591-0.006,0.814c-1.639,1.613-3.261,3.239-4.866,4.878C349.609,131.174,349.461,131.232,349.312,131.232
			 M47.103,127.989c-0.086,0-0.173-0.019-0.255-0.06c-0.285-0.14-0.402-0.485-0.261-0.77c1.015-2.057,2.123-4.113,3.29-6.111
			c0.16-0.275,0.513-0.368,0.787-0.206c0.275,0.16,0.368,0.512,0.207,0.787c-1.153,1.975-2.248,4.007-3.252,6.04
			C47.519,127.872,47.313,127.989,47.103,127.989 M598.949,123.733c-0.228,0-0.442-0.136-0.533-0.359
			c-0.859-2.111-1.803-4.218-2.803-6.263c-0.139-0.286-0.021-0.63,0.265-0.77c0.281-0.139,0.63-0.023,0.771,0.264
			c1.011,2.069,1.964,4.2,2.833,6.335c0.121,0.294-0.021,0.63-0.315,0.75C599.095,123.719,599.021,123.733,598.949,123.733
			 M359.151,121.556c-0.152,0-0.305-0.06-0.418-0.18c-0.218-0.23-0.208-0.595,0.022-0.813c1.675-1.583,3.365-3.15,5.071-4.698
			c0.235-0.213,0.6-0.197,0.813,0.04c0.213,0.235,0.195,0.599-0.04,0.813c-1.7,1.544-3.386,3.104-5.053,4.681
			C359.437,121.504,359.293,121.556,359.151,121.556 M54.056,116.08c-0.113,0-0.225-0.032-0.324-0.1
			c-0.263-0.179-0.331-0.537-0.152-0.8c1.298-1.908,2.676-3.793,4.096-5.602c0.197-0.25,0.559-0.292,0.808-0.097
			c0.251,0.197,0.293,0.558,0.098,0.808c-1.403,1.789-2.767,3.653-4.05,5.539C54.419,115.991,54.239,116.08,54.056,116.08
			 M369.374,112.287c-0.16,0-0.32-0.067-0.435-0.198c-0.208-0.241-0.183-0.604,0.057-0.812c1.752-1.521,3.526-3.026,5.273-4.473
			c0.245-0.205,0.608-0.17,0.811,0.076c0.203,0.244,0.169,0.608-0.075,0.81c-1.741,1.442-3.509,2.942-5.253,4.456
			C369.644,112.241,369.508,112.287,369.374,112.287 M592.888,111.344c-0.197,0-0.393-0.103-0.498-0.288
			c-1.145-1.978-2.367-3.935-3.637-5.815c-0.179-0.264-0.108-0.622,0.155-0.8c0.26-0.176,0.62-0.109,0.799,0.155
			c1.285,1.903,2.523,3.883,3.679,5.884c0.16,0.275,0.065,0.628-0.21,0.787C593.085,111.319,592.985,111.344,592.888,111.344
			 M62.566,105.228c-0.137,0-0.276-0.049-0.386-0.147c-0.236-0.213-0.255-0.577-0.042-0.813c1.54-1.711,3.159-3.393,4.813-4.999
			c0.228-0.219,0.592-0.216,0.814,0.013c0.221,0.228,0.216,0.592-0.012,0.814c-1.636,1.587-3.236,3.25-4.758,4.942
			C62.881,105.164,62.725,105.228,62.566,105.228 M380.004,103.483c-0.17,0-0.338-0.075-0.452-0.219
			c-0.196-0.25-0.153-0.612,0.096-0.809c1.812-1.429,3.657-2.846,5.483-4.214c0.253-0.19,0.614-0.14,0.806,0.116
			c0.19,0.255,0.139,0.615-0.115,0.806c-1.819,1.362-3.657,2.773-5.461,4.197C380.255,103.443,380.129,103.483,380.004,103.483
			 M585.169,99.916c-0.171,0-0.339-0.075-0.453-0.22c-1.408-1.797-2.898-3.559-4.427-5.236c-0.213-0.235-0.195-0.599,0.039-0.813
			c0.235-0.215,0.602-0.197,0.814,0.038c1.545,1.698,3.053,3.481,4.479,5.3c0.197,0.251,0.153,0.612-0.097,0.809
			C585.419,99.876,585.294,99.916,585.169,99.916 M72.463,95.624c-0.163,0-0.326-0.07-0.44-0.204
			c-0.205-0.243-0.175-0.606,0.067-0.812c1.762-1.491,3.595-2.937,5.448-4.297c0.253-0.187,0.615-0.134,0.806,0.123
			c0.188,0.257,0.132,0.617-0.124,0.805c-1.832,1.345-3.643,2.774-5.385,4.249C72.728,95.579,72.595,95.624,72.463,95.624
			 M391.054,95.216c-0.181,0-0.358-0.084-0.471-0.244c-0.183-0.259-0.122-0.618,0.138-0.802c1.895-1.34,3.813-2.658,5.702-3.917
			c0.261-0.175,0.621-0.106,0.799,0.16c0.176,0.265,0.104,0.622-0.16,0.798c-1.88,1.254-3.791,2.565-5.675,3.899
			C391.285,95.182,391.169,95.216,391.054,95.216 M575.884,89.726c-0.143,0-0.285-0.052-0.396-0.157
			c-1.122-1.06-2.287-2.105-3.463-3.102c-0.563-0.477-1.128-0.947-1.698-1.41c-0.246-0.2-0.284-0.563-0.084-0.809
			c0.203-0.248,0.564-0.284,0.811-0.085c0.577,0.469,1.149,0.944,1.717,1.426c1.191,1.011,2.372,2.068,3.51,3.143
			c0.23,0.218,0.24,0.583,0.022,0.814C576.188,89.666,576.036,89.726,575.884,89.726 M402.54,87.565
			c-0.191,0-0.379-0.096-0.488-0.271c-0.168-0.269-0.086-0.625,0.184-0.793c1.962-1.225,3.955-2.428,5.923-3.575
			c0.273-0.16,0.626-0.069,0.787,0.208c0.16,0.274,0.067,0.627-0.207,0.787c-1.959,1.14-3.941,2.338-5.894,3.557
			C402.75,87.537,402.645,87.565,402.54,87.565 M83.578,87.463c-0.19,0-0.378-0.096-0.487-0.268c-0.17-0.27-0.089-0.625,0.18-0.795
			c1.96-1.237,3.977-2.412,5.996-3.494c0.278-0.149,0.628-0.045,0.779,0.236c0.151,0.281,0.045,0.63-0.235,0.78
			c-1.995,1.068-3.988,2.229-5.926,3.452C83.789,87.434,83.684,87.463,83.578,87.463 M565.194,81.018
			c-0.116,0-0.232-0.034-0.333-0.106c-1.849-1.307-3.776-2.578-5.727-3.776c-0.271-0.167-0.354-0.521-0.188-0.792
			c0.165-0.272,0.52-0.355,0.792-0.189c1.971,1.211,3.919,2.495,5.788,3.817c0.26,0.185,0.321,0.543,0.138,0.803
			C565.552,80.933,565.374,81.018,565.194,81.018 M95.735,80.958c-0.22,0-0.43-0.128-0.526-0.342c-0.13-0.291,0.002-0.63,0.292-0.76
			c2.119-0.941,4.286-1.808,6.446-2.578c0.302-0.108,0.63,0.049,0.735,0.349c0.107,0.3-0.049,0.628-0.349,0.735
			c-2.131,0.761-4.273,1.618-6.364,2.546C95.893,80.942,95.814,80.958,95.735,80.958 M414.467,80.621
			c-0.205,0-0.403-0.11-0.508-0.302c-0.15-0.28-0.047-0.629,0.234-0.781c2.034-1.098,4.101-2.171,6.142-3.186
			c0.283-0.141,0.63-0.026,0.771,0.26c0.142,0.284,0.026,0.629-0.259,0.772c-2.029,1.009-4.084,2.075-6.108,3.168
			C414.653,80.599,414.56,80.621,414.467,80.621 M426.822,74.48c-0.218,0-0.428-0.125-0.524-0.338
			c-0.131-0.289-0.003-0.63,0.286-0.761c2.111-0.959,4.248-1.883,6.354-2.746c0.291-0.121,0.63,0.02,0.751,0.314
			c0.12,0.294-0.021,0.631-0.315,0.751c-2.09,0.858-4.214,1.776-6.313,2.729C426.983,74.464,426.902,74.48,426.822,74.48
			 M553.447,73.799c-0.091,0-0.183-0.022-0.27-0.067c-2.005-1.064-4.077-2.084-6.159-3.03c-0.289-0.131-0.417-0.473-0.285-0.762
			c0.133-0.289,0.474-0.418,0.762-0.286c2.104,0.956,4.196,1.985,6.223,3.06c0.281,0.149,0.388,0.498,0.237,0.778
			C553.853,73.688,553.653,73.799,553.447,73.799 M439.588,69.244c-0.235,0-0.456-0.144-0.541-0.378
			c-0.109-0.297,0.044-0.629,0.343-0.738c2.168-0.795,4.371-1.554,6.544-2.255c0.303-0.094,0.627,0.069,0.725,0.372
			c0.098,0.302-0.068,0.627-0.371,0.725c-2.159,0.695-4.348,1.45-6.502,2.239C439.72,69.233,439.653,69.244,439.588,69.244
			 M540.894,68.087c-0.068,0-0.138-0.013-0.207-0.038c-2.109-0.813-4.288-1.581-6.476-2.284c-0.304-0.097-0.47-0.421-0.372-0.724
			c0.097-0.302,0.422-0.469,0.723-0.372c2.209,0.709,4.409,1.484,6.539,2.304c0.297,0.115,0.444,0.448,0.331,0.745
			C541.343,67.947,541.125,68.087,540.894,68.087 M452.716,65.013c-0.252,0-0.483-0.166-0.555-0.419
			c-0.085-0.307,0.093-0.624,0.399-0.711l0.335-0.093c2.099-0.579,4.245-1.122,6.38-1.611c0.313-0.074,0.619,0.124,0.688,0.433
			c0.071,0.309-0.122,0.619-0.433,0.69c-2.117,0.485-4.247,1.023-6.331,1.598l-0.33,0.092
			C452.819,65.007,452.767,65.013,452.716,65.013 M527.761,63.867c-0.048,0-0.097-0.006-0.145-0.019
			c-2.194-0.573-4.445-1.097-6.692-1.558c-0.312-0.063-0.512-0.368-0.448-0.679c0.063-0.312,0.371-0.511,0.68-0.449
			c2.267,0.465,4.538,0.994,6.751,1.572c0.308,0.08,0.492,0.395,0.411,0.703C528.25,63.696,528.018,63.867,527.761,63.867
			 M466.161,61.928c-0.271,0-0.515-0.195-0.565-0.473c-0.057-0.313,0.149-0.612,0.463-0.67c2.267-0.411,4.568-0.775,6.843-1.082
			c0.306-0.041,0.604,0.178,0.646,0.494c0.043,0.315-0.178,0.605-0.493,0.648c-2.257,0.304-4.541,0.665-6.789,1.073
			C466.231,61.925,466.196,61.928,466.161,61.928 M514.246,61.09c-0.028,0-0.058-0.002-0.087-0.007
			c-2.241-0.34-4.535-0.63-6.819-0.861c-0.315-0.031-0.546-0.314-0.514-0.63c0.031-0.318,0.323-0.543,0.631-0.516
			c2.302,0.233,4.615,0.526,6.875,0.869c0.315,0.048,0.531,0.341,0.482,0.656C514.771,60.886,514.525,61.09,514.246,61.09
			 M479.833,60.085c-0.296,0-0.546-0.226-0.572-0.525c-0.028-0.317,0.206-0.596,0.522-0.625c2.288-0.202,4.614-0.354,6.911-0.451
			c0.355-0.038,0.587,0.233,0.601,0.55c0.014,0.318-0.233,0.586-0.551,0.6c-2.28,0.097-4.588,0.247-6.859,0.448
			C479.868,60.084,479.851,60.085,479.833,60.085 M500.517,59.699c-0.01,0-0.021,0-0.03,0c-2.267-0.119-4.579-0.185-6.869-0.195
			c-0.318-0.002-0.575-0.261-0.574-0.578c0.002-0.318,0.259-0.574,0.576-0.574h0.001c2.311,0.011,4.641,0.077,6.927,0.196
			c0.317,0.017,0.562,0.288,0.545,0.605C501.075,59.461,500.821,59.699,500.517,59.699"/>
		<path clip-path="url(#SVGID_2_)" fill="#191930" d="M595.163,200.296c-0.104,0-0.207-0.027-0.301-0.084
			c-0.271-0.166-0.356-0.52-0.191-0.792c0.59-0.965,1.167-1.963,1.715-2.967c0.152-0.28,0.502-0.381,0.781-0.229
			c0.278,0.152,0.382,0.502,0.229,0.781c-0.557,1.02-1.142,2.035-1.741,3.016C595.545,200.198,595.356,200.296,595.163,200.296"/>
		<polygon clip-path="url(#SVGID_2_)" fill="#BFBFBF" points="628.636,201.057 594.794,281.119 539.639,280.831 546.455,263.225 
			570.531,201.057 		"/>
		<path clip-path="url(#SVGID_2_)" fill="#FFB98A" d="M577.107,279.553c-0.034,0.035-0.081,0.081-0.115,0.115
			c-4.168,3.938-23.053,9.385-23.053,9.385l-85.704,15.384l-4.076-23.317l-3.903-22.373c4.548-4.802,9.2-9.926,13.748-15.084
			l8.015,30.031l2.36,7.139h64.782c2.648-6.033,12.009-4.56,12.009-4.56s2.719-21.003,5.517-21.199
			c2.81-0.207,2.084,15.361,2.084,15.361s3.846-15.925,6.483-15.764c2.637,0.161,0.448,14.957,0.448,14.957
			s7.37-14.082,10.894-13.438C590.073,256.812,581.322,275.361,577.107,279.553"/>
		<path clip-path="url(#SVGID_2_)" fill="#CB5B3B" d="M353.185,383.427l6.24-89.146l-8.716-54.915v-0.012
			c-9.983-10.927-19.149-23.26-19.69-32.034c-1.198-19.632,14.681-31.009,14.681-31.009c0.691-0.368,1.371-0.725,2.05-1.059
			c0.058-0.035,0.127-0.058,0.185-0.093c0.426-0.207,0.841-0.402,1.255-0.598c0.68-0.311,1.358-0.611,2.026-0.887
			c10.433-4.352,19.599-4.617,30.123-6.229c0.058,0,0.127-0.012,0.185-0.023c0,0,0.356,0.23,1.001,0.621
			c4.457,2.753,22.523,13.692,29.213,14.037c7.669,0.403,6.587-10.72,6.587-10.72l-0.253-2.016v-0.022c0,0,0.506,0.011,1.416,0.057
			c5.078,0.219,22.695,1.301,33.404,6.08c0.265,0.115,0.529,0.23,0.795,0.357c0.483,0.23,0.955,0.461,1.404,0.714
			c1.762,0.967,3.235,2.061,4.318,3.305c8.348,9.569,12.01,20.726,12.172,21.21v0.011l-2.431,45.437
			c-0.242,4.629-1.187,9.212-2.994,13.473c-1.128,2.637-2.602,5.308-4.456,7.104l2.465,14.048l4.075,23.317l13.784,78.991H353.185z"
			/>
		<path clip-path="url(#SVGID_2_)" fill="#FFB98A" d="M530.467,163.632c0,0,8.89,22.396,4.249,28.868
			c-4.041,5.642-24.662,10.817-30.511,12.509l0.115,0.392c-0.519,0.668-30.316,38.249-30.316,38.249v0.012
			c-4.548,5.158-9.2,10.283-13.748,15.084c-7.554,7.968-14.809,15.026-20.808,19.771c-5.124,4.053-9.339,6.426-12.056,6.265
			c-3.789-0.23-8.671-1.763-13.898-3.973c-13.242-5.585-28.764-15.477-34.659-19.356l29.662-37.838l18.47,14.97l44.607-37.527
			v-0.011l18.894-15.462l0.012-0.012c4.755-7.438,16.037-26.972,18.271-27.732c2.706-0.921,7.335,0.576,7.335,0.576
			s34.176-20.703,36.007-15.061C553.935,149.008,530.467,163.632,530.467,163.632"/>
		<polygon clip-path="url(#SVGID_2_)" fill="#BFBFBF" points="546.455,263.226 539.639,280.831 465.806,280.831 482.536,275.258 
			518.727,263.226 		"/>
		<g opacity="0.3" clip-path="url(#SVGID_2_)">
			<g>
				<defs>
					<rect id="SVGID_15_" x="413.494" y="268.729" width="25.954" height="16.061"/>
				</defs>
				<clipPath id="SVGID_16_">
					<use xlink:href="#SVGID_15_"  overflow="visible"/>
				</clipPath>
				<path clip-path="url(#SVGID_16_)" fill="#191930" d="M439.448,278.517c-5.124,4.054-9.339,6.426-12.056,6.265
					c-3.789-0.23-8.672-1.763-13.898-3.973c0.576-6.771,6.252-12.079,13.173-12.079
					C432.781,268.729,437.928,272.875,439.448,278.517"/>
			</g>
		</g>
		<path clip-path="url(#SVGID_2_)" fill="#191930" d="M464.801,205.655c-11.342,9.907-22.685,19.813-34.026,29.719l-9.536,8.329
			c-0.559,0.489,0.259,1.301,0.814,0.815c11.342-9.907,22.686-19.813,34.026-29.719l9.536-8.33
			C466.174,205.981,465.356,205.169,464.801,205.655"/>
		<path clip-path="url(#SVGID_2_)" fill="#191930" d="M479.983,236.585c-8.006,9.919-16.616,19.347-25.78,28.208
			c-2.587,2.5-5.218,4.954-7.889,7.364c-0.551,0.497,0.266,1.31,0.814,0.813c9.464-8.538,18.405-17.653,26.749-27.291
			c2.354-2.72,4.66-5.482,6.92-8.281C481.259,236.829,480.449,236.008,479.983,236.585"/>
		<path clip-path="url(#SVGID_2_)" fill="#191930" d="M547.554,279.14h-72.876c-0.741,0-0.742,1.152,0,1.152h72.876
			C548.295,280.292,548.296,279.14,547.554,279.14"/>
		<path clip-path="url(#SVGID_2_)" fill="#191930" d="M571.588,202.568c-3.705,9.555-7.411,19.109-11.116,28.664
			c-3.688,9.51-7.377,19.02-11.065,28.53l-6.285,16.207c-0.269,0.691,0.845,0.991,1.11,0.307
			c3.705-9.556,7.411-19.109,11.116-28.664c3.688-9.51,7.377-19.021,11.065-28.53l6.285-16.207
			C572.967,202.183,571.854,201.883,571.588,202.568"/>
		<path clip-path="url(#SVGID_2_)" fill="#191930" d="M455.202,214.528c-4.701-7.039-9.401-14.077-14.104-21.115
			c-0.408-0.614-1.406-0.037-0.993,0.581c4.7,7.038,9.401,14.077,14.103,21.115C454.617,215.722,455.615,215.146,455.202,214.528"/>
		<path clip-path="url(#SVGID_2_)" fill="#191930" d="M412.383,219.551c0.063-0.181,0.05-0.388-0.115-0.568
			c-7.238-7.891-15.059-15.236-23.389-21.965c-0.571-0.461-1.391,0.348-0.814,0.814c8.274,6.684,16.044,13.979,23.241,21.811
			c-8.907,11.188-17.813,22.377-26.721,33.565l-7.198,9.041c-11.25-9.433-21.889-19.591-31.817-30.408
			c-4.662-5.082-9.565-10.358-12.185-16.845c-2.639-6.534-2.491-13.903-0.188-20.51c2.43-6.971,7.227-12.916,12.983-17.447
			c0.582-0.458-0.238-1.268-0.814-0.815c-5.18,4.077-9.56,9.279-12.238,15.332c-2.849,6.438-3.722,13.821-1.886,20.664
			c1.817,6.78,6.287,12.386,10.878,17.528c2.563,2.869,5.182,5.689,7.849,8.463c-0.057,0.107-0.092,0.228-0.069,0.372
			c1.468,9.545,2.935,19.092,4.402,28.639c0.421,2.741,0.842,5.482,1.264,8.224c0.112,0.73,1.222,0.42,1.11-0.306
			c-1.468-9.547-2.935-19.094-4.402-28.64c-0.36-2.345-0.721-4.69-1.081-7.035c2.163,2.227,4.351,4.431,6.573,6.598
			c6.127,5.974,12.484,11.711,19.047,17.204c0.022,0.019,0.048,0.023,0.071,0.038c0.118,0.394,0.595,0.666,0.914,0.265
			c8.973-11.271,17.945-22.542,26.918-33.813c2.533-3.183,5.067-6.366,7.602-9.548C412.486,219.996,412.48,219.749,412.383,219.551"
			/>
		<path clip-path="url(#SVGID_2_)" fill="#FFB98A" d="M411.732,182.081c-7.657-0.392-31.005-14.454-31.005-14.454
			c2.614-3.788,5.224-11.799,5.995-16.337c0.126-0.759,0.229-1.531,0.299-2.302c5.665,6.667,14.105,10.904,23.49,10.904h2.441
			c1.474,0,2.913-0.103,4.329-0.311l0.783,9.742l0.253,2.038C418.318,171.361,419.401,182.483,411.732,182.081"/>
		<path clip-path="url(#SVGID_2_)" fill="#191930" d="M418.065,169.322c-22.914,0.564-30.802-19.806-31.032-20.324
			c5.665,6.656,14.094,10.893,23.479,10.893h2.441c1.474,0,2.913-0.103,4.329-0.311L418.065,169.322z"/>
		<path clip-path="url(#SVGID_2_)" fill="#FFB98A" d="M441.974,99.258v31.662c0,14.717-10.994,26.989-25.188,28.998
			c-1.343,0.197-2.709,0.295-4.105,0.295h-2.314c-8.898,0-16.89-4.018-22.262-10.329l-0.011-0.01
			c0.841-8.571-1.899-17.371-7.01-24.358v-0.033c-0.021-0.011-0.032-0.022-0.043-0.033c-2.577-1.616-4.685-3.952-6.049-6.671
			c-1.562-3.133-2.107-6.769-1.54-10.219c0.306-1.867,0.983-3.745,2.348-5.055c1.387-1.31,3.429-1.867,5.284-1.485
			c0.24,0.033,0.48,0.098,0.71,0.175c0.852,0.294,1.616,0.786,2.249,1.43l0.153-0.164c10.667-4.094,18.866-13.942,21.126-25.111
			l0.196,0.033c7.676-2.741,16.563-1.856,23.539,2.336C435.707,84.727,440.511,91.648,441.974,99.258"/>
		<path clip-path="url(#SVGID_2_)" fill="#191930" d="M467.878,107.43c-2.993-2.245-6.54-3.592-10.202-4.33
			c2.614-3.845,4.779-8.071,5.412-12.666c0.656-4.859-0.656-10.179-4.295-13.461c-3.374-3.039-8.095-3.926-12.367-5.492
			c-7.634-2.809-14.117-7.968-20.922-12.425c-6.805-4.444-14.497-8.324-22.627-8.025c-8.129,0.322-16.512,6.195-17.076,14.301
			c-5.4-3.638-12.712-4.295-18.677-1.67c-5.977,2.626-10.421,8.453-11.377,14.912c-0.736,4.905,0.415,9.995-0.219,14.889
			c-2.51,7.139-9.614,12.39-14.831,17.571c-3.27,3.259-6.321,6.967-7.749,11.435c-1.313,4.11-1.255,9.073,1.394,12.677
			c2.05,2.798,5.504,4.687,8.958,4.468c-4.099,3.754-6.563,9.108-6.943,14.681c-0.449,6.391,2.153,12.609,6.667,17.1
			c1.475,1.473,3.133,2.74,4.905,3.765c3.812,2.223,8.199,3.374,12.678,3.247c6.852-0.184,13.564-3.12,18.32-8.06
			c0.875-0.91,1.681-1.877,2.406-2.902c1.636-2.234,2.925-4.709,3.847-7.312c1.255-2.556,2.152-5.273,2.625-8.072
			c0.127-0.725,0.219-1.45,0.288-2.187c0.84-8.568-1.9-17.376-7.013-24.354c0-0.023-0.012-0.046-0.034-0.069
			c-2.58-1.612-4.687-3.95-6.058-6.668c-1.554-3.143-2.106-6.77-1.531-10.225c0.3-1.865,0.979-3.742,2.338-5.054
			c1.394-1.313,3.432-1.866,5.285-1.486c0.242,0.035,0.483,0.104,0.714,0.173c0.853,0.3,1.612,0.795,2.245,1.439l0.161-0.172
			c10.524-4.042,18.643-13.692,21.015-24.688c3.432,5.078,9.615,7.865,15.35,9.787c3.972,1.325,8.049,2.442,11.813,4.307
			c3.523,1.75,6.621,4.18,8.82,7.484c0.276,0.404,0.53,0.818,0.771,1.244v29.328c0,14.716-10.984,26.991-25.183,28.994l0.737,9.42
			c0,0,0.184,0,0.541,0.011v-0.023c0,0,0.507,0.012,1.416,0.058c5.078,0.218,22.696,1.301,33.404,6.079
			c2.073-0.448,4.895-1.312,5.999-5.768c3.42-1.347,6.392-3.824,8.176-7.105c3.006-5.504,2.591-12.436-1.243-17.433
			c-0.807-1.048-1.728-1.993-2.752-2.822c-0.588-0.771-1.221-1.508-1.912-2.187c6.114-1.486,11.4-6.091,13.346-12.172
			C476.895,120.499,474.119,112.116,467.878,107.43 M335.229,130.54c0.714,3.593,3.466,6.863,6.862,7.899
			c-2.603-0.219-5.101-1.681-6.701-3.788c-2.729-3.604-2.557-8.624-1.048-12.678c3.281-8.855,12.274-13.772,17.997-20.83
			c0.519-0.645,1.002-1.313,1.463-1.992c-1.417,2.902-3.489,5.527-5.712,7.911c-3.178,3.408-6.679,6.54-9.338,10.363
			C336.092,121.248,334.33,125.969,335.229,130.54 M369.381,174.573c3.432-1.186,6.54-3.121,9.2-5.573
			c-3.973,4.329-9.385,7.197-15.211,8.037c-4.894,0.703-9.88-0.161-14.187-2.476c-1.22-0.645-2.395-1.416-3.488-2.303
			c-4.687-3.788-7.922-9.384-8.222-15.476c-0.173-3.696,0.656-7.438,2.349-10.72c-2.613,6.541-1.899,14.543,2.257,20.347
			c1.543,2.153,3.478,3.949,5.666,5.389c0.38,0.253,0.771,0.484,1.163,0.714c0.748,0.426,1.508,0.817,2.303,1.163
			C356.853,176.185,363.509,176.599,369.381,174.573 M466.657,157.98c0.783-3.719,0.334-7.646-1.082-11.169
			c1.117,1.727,1.877,3.673,2.188,5.734c0.76,5.09-1.232,10.317-5.113,13.611C464.608,163.783,466.024,160.985,466.657,157.98
			 M473.785,126.199c-0.783,3.466-2.683,6.552-5.331,8.89c-2.36,2.084-5.263,3.523-8.349,4.11c-0.126-0.103-0.241-0.207-0.368-0.311
			c7.784-2.337,13.392-10.455,12.816-18.573c-0.392-5.458-3.57-10.524-8.061-13.622c3.73,1.992,6.828,4.975,8.451,9.12
			C474.223,119.095,474.557,122.756,473.785,126.199"/>
		<g opacity="0.3" clip-path="url(#SVGID_2_)">
			<g>
				<defs>
					<rect id="SVGID_17_" x="420.948" y="111.083" width="12.017" height="22.157"/>
				</defs>
				<clipPath id="SVGID_18_">
					<use xlink:href="#SVGID_17_"  overflow="visible"/>
				</clipPath>
				<polygon clip-path="url(#SVGID_18_)" fill="#191930" points="427.018,111.083 420.948,133.241 432.965,133.241 				"/>
			</g>
		</g>
		<g opacity="0.3" clip-path="url(#SVGID_2_)">
			<g>
				<defs>
					<rect id="SVGID_19_" x="386.493" y="118.512" width="17.807" height="17.807"/>
				</defs>
				<clipPath id="SVGID_20_">
					<use xlink:href="#SVGID_19_"  overflow="visible"/>
				</clipPath>
				<path clip-path="url(#SVGID_20_)" fill="#191930" d="M386.493,127.416c0,4.917,3.985,8.903,8.903,8.903
					c4.917,0,8.903-3.986,8.903-8.903s-3.986-8.903-8.903-8.903C390.479,118.513,386.493,122.499,386.493,127.416"/>
			</g>
		</g>
		<g opacity="0.3" clip-path="url(#SVGID_2_)">
			<g>
				<defs>
					<rect id="SVGID_21_" x="408.734" y="104.106" width="9.765" height="13.154"/>
				</defs>
				<clipPath id="SVGID_22_">
					<use xlink:href="#SVGID_21_"  overflow="visible"/>
				</clipPath>
				<path clip-path="url(#SVGID_22_)" fill="#191930" d="M408.733,110.925c0,3.766,2.187,6.335,4.883,6.335
					c2.697,0,4.883-2.569,4.883-6.335s-2.186-6.818-4.883-6.818C410.92,104.107,408.733,107.159,408.733,110.925"/>
			</g>
		</g>
		<path clip-path="url(#SVGID_2_)" fill="#191930" d="M409.481,111.981c0,2.915,1.852,5.278,4.135,5.278
			c2.284,0,4.135-2.363,4.135-5.278c0-2.916-1.851-5.279-4.135-5.279C411.333,106.703,409.481,109.065,409.481,111.981"/>
		<path clip-path="url(#SVGID_2_)" fill="#191930" d="M406.804,99.623c0.283-0.439,0.747-0.909,1.287-0.99l7.134-1.068
			c0.595-0.089,1.119-0.099,1.66,0.217c0.447,0.262,0.873,0.774,0.99,1.288c0.125,0.551,0.098,1.17-0.218,1.66
			c-0.282,0.438-0.746,0.909-1.287,0.99l-7.134,1.068c-0.595,0.088-1.119,0.099-1.66-0.218c-0.446-0.261-0.873-0.774-0.989-1.287
			C406.461,100.73,406.488,100.112,406.804,99.623"/>
		<g opacity="0.3" clip-path="url(#SVGID_2_)">
			<g>
				<defs>
					<rect id="SVGID_23_" x="431.535" y="104.202" width="9.766" height="13.154"/>
				</defs>
				<clipPath id="SVGID_24_">
					<use xlink:href="#SVGID_23_"  overflow="visible"/>
				</clipPath>
				<path clip-path="url(#SVGID_24_)" fill="#191930" d="M431.535,111.021c0,3.766,2.186,6.335,4.883,6.335
					c2.696,0,4.883-2.569,4.883-6.335s-2.187-6.818-4.883-6.818C433.721,104.203,431.535,107.254,431.535,111.021"/>
			</g>
		</g>
		<path clip-path="url(#SVGID_2_)" fill="#191930" d="M432.283,112.078c0,2.915,1.851,5.278,4.135,5.278
			c2.283,0,4.135-2.363,4.135-5.278c0-2.916-1.852-5.279-4.135-5.279C434.134,106.799,432.283,109.162,432.283,112.078"/>
		<path clip-path="url(#SVGID_2_)" fill="#191930" d="M444.121,100.234c-0.283-0.438-0.747-0.909-1.287-0.99l-7.134-1.068
			c-0.595-0.088-1.119-0.099-1.66,0.218c-0.446,0.261-0.873,0.774-0.99,1.287c-0.125,0.552-0.098,1.171,0.218,1.66
			c0.283,0.439,0.747,0.909,1.287,0.99l7.134,1.068c0.595,0.089,1.119,0.099,1.66-0.217c0.446-0.262,0.873-0.774,0.99-1.288
			C444.464,101.343,444.437,100.724,444.121,100.234"/>
		<g opacity="0.5" clip-path="url(#SVGID_2_)">
			<g>
				<defs>
					<rect id="SVGID_25_" x="407.359" y="132.974" width="11.97" height="13.428"/>
				</defs>
				<clipPath id="SVGID_26_">
					<use xlink:href="#SVGID_25_"  overflow="visible"/>
				</clipPath>
				<path clip-path="url(#SVGID_26_)" fill="#191930" d="M418.181,142.48c-1.946,3.371-5.689,4.854-8.361,3.312
					c-2.671-1.542-3.258-5.525-1.312-8.897c1.946-3.371,5.689-4.854,8.361-3.312C419.54,135.125,420.127,139.108,418.181,142.48"/>
			</g>
		</g>
		<path clip-path="url(#SVGID_2_)" fill="#191930" d="M409.678,134.323c1.563,4.621,6.104,7.503,10.936,7.148
			c1.341-0.098,1.334,1.991,0,2.089c-5.784,0.424-11.103-3.225-12.949-8.682C407.232,133.602,409.248,133.055,409.678,134.323"/>
		<path clip-path="url(#SVGID_2_)" fill="#191930" d="M383.475,110.013c-0.184-1.432-0.554-3.067-1.568-4.155
			c-0.878-0.942-2.226-1.277-3.381-0.648c-1.301,0.708-1.771,2.177-2.012,3.542c-0.128,0.725,0.982,1.036,1.11,0.306
			c0.179-1.015,0.429-2.23,1.389-2.803c1.128-0.674,2.16,0.276,2.627,1.266c0.946,2.007,0.974,4.466,0.479,6.612
			c-1.842,0.129-3.549,1.384-4.063,3.197c-0.54,1.908,0.345,3.972,1.984,5.026c0.625,0.403,1.203-0.594,0.581-0.994
			c-1.209-0.777-1.852-2.326-1.455-3.726c0.421-1.487,1.912-2.428,3.416-2.375c0.25,0.009,0.492-0.185,0.556-0.422
			C383.557,113.262,383.683,111.633,383.475,110.013"/>
		<path clip-path="url(#SVGID_2_)" fill="#191930" d="M433.87,133.395c-2.178-7.616-4.354-15.231-6.531-22.847
			c-0.204-0.712-1.315-0.409-1.11,0.305l6.322,22.118c-3.884-0.007-7.768-0.014-11.651-0.021c-0.74-0.001-0.742,1.15,0,1.152
			c4.139,0.007,8.276,0.015,12.415,0.022C433.686,134.124,433.973,133.755,433.87,133.395"/>
		<path clip-path="url(#SVGID_2_)" fill="#CB5B3B" d="M440.406,96.059c-5.884,0-10.743,5.239-11.307,11.906
			c-1.658-0.15-3.328-0.092-4.975,0.219c-0.473-6.782-5.366-12.125-11.32-12.125c-5.779,0-10.558,5.032-11.261,11.526
			c-5.526-2.763-22.721-8.983-25.576-8.822c-2.233,0.138-4.41,1.589-4.859,3.869c-0.276,1.451,1.935,2.061,2.223,0.611
			c0.553-2.81,3.915-2.269,5.896-1.544c2.499,0.91,17.505,6.036,22.201,8.385c0.013,0.012,0.036,0.012,0.048,0.023
			c0.38,6.886,5.308,12.344,11.329,12.344c5.896,0,10.756-5.24,11.297-11.929c0.863-0.196,1.589-0.3,2.487-0.346
			c0.519-0.023,1.047-0.034,1.566-0.011c0.241,0.011,0.495,0.034,0.748,0.057c0.058,0,0.127,0.012,0.185,0.012
			c0.438,6.816,5.342,12.217,11.318,12.217c6.265,0,11.354-5.919,11.354-13.196S446.671,96.059,440.406,96.059 M421.856,109.52
			c-0.115,5.884-4.122,10.628-9.052,10.628c-4.996,0-9.05-4.882-9.05-10.893v-0.253c0.115-5.896,4.123-10.64,9.05-10.64
			c4.997,0,9.052,4.882,9.052,10.893V109.52z M440.406,120.147c-4.997,0-9.05-4.882-9.05-10.893c0-6.011,4.053-10.893,9.05-10.893
			c4.986,0,9.051,4.882,9.051,10.893C449.457,115.266,445.393,120.147,440.406,120.147"/>
		<path clip-path="url(#SVGID_2_)" fill="#CB5B3B" d="M585.936,111.502c-5.41,3.605-10.001,8.313-13.401,13.844l-2.5,4.055
			l-17.879-4.306l-0.252-3.195c-0.555-6.959-2.805-13.645-6.346-19.657c-3.602-6.134-4.924-13.618-3.126-21.084
			c3.837-15.933,20.376-25.474,36.272-20.481c13.331,4.187,21.735,17.747,19.542,31.54
			C596.933,100.501,592.274,107.27,585.936,111.502"/>
		
			<rect x="548.146" y="125.969" transform="matrix(0.9722 0.2341 -0.2341 0.9722 45.756 -127.5869)" clip-path="url(#SVGID_2_)" fill="#BFBFBF" width="24.143" height="5.884"/>
		
			<rect x="548.92" y="131.75" transform="matrix(0.9722 0.2341 -0.2341 0.9722 46.5764 -127.2841)" clip-path="url(#SVGID_2_)" fill="#191930" width="20.858" height="1.532"/>
		
			<rect x="546.41" y="133.179" transform="matrix(0.9722 0.2341 -0.2341 0.9722 47.396 -126.9798)" clip-path="url(#SVGID_2_)" fill="#BFBFBF" width="24.143" height="5.884"/>
		<path clip-path="url(#SVGID_2_)" fill="#191930" d="M549.548,136.995c0,0,1.23,3.231,7.576,4.76
			c6.347,1.528,8.544-0.877,8.544-0.877L549.548,136.995z"/>
		<path clip-path="url(#SVGID_2_)" fill="#191930" d="M572.537,128.634c-8.227-0.124-16.452-0.248-24.679-0.372
			c-0.56-0.008-0.531,0.862,0.028,0.871c8.227,0.124,16.452,0.248,24.679,0.372C573.125,129.513,573.097,128.644,572.537,128.634"/>
		<path clip-path="url(#SVGID_2_)" fill="#191930" d="M571.057,136.047l-12.671-0.591c-4.036-0.188-8.112-0.502-12.136,0.04
			c-0.549,0.074-0.527,0.946,0.029,0.87c4.022-0.541,8.099-0.228,12.135-0.039c4.224,0.197,8.447,0.394,12.671,0.591
			C571.644,136.943,571.614,136.073,571.057,136.047"/>
		<path clip-path="url(#SVGID_2_)" fill="#191930" d="M554.928,123.75l-0.609-27.394c-0.059-2.609-0.117-5.218-0.175-7.827
			c-0.013-0.559-0.883-0.533-0.87,0.029l0.609,27.394c0.058,2.609,0.116,5.218,0.174,7.827
			C554.069,124.338,554.939,124.313,554.928,123.75"/>
		<path clip-path="url(#SVGID_2_)" fill="#191930" d="M587.913,89.265c-6.331,9.474-12.38,19.137-18.131,28.975
			c-1.643,2.811-3.261,5.636-4.855,8.474c-0.275,0.489,0.487,0.91,0.762,0.422c5.582-9.934,11.46-19.702,17.629-29.283
			c1.763-2.738,3.549-5.46,5.358-8.167C588.987,89.22,588.223,88.802,587.913,89.265"/>
		<path clip-path="url(#SVGID_2_)" fill="#FFFFFF" d="M586.761,99.388c-0.586,1.772-2.417,2.9-4.245,2.884
			c-2.073-0.018-3.938-1.381-4.939-3.134c-0.384-0.673-0.652-1.398-0.823-2.147c0.853-0.591,1.59-1.365,2.184-2.244
			c0.717-1.064,1.238-2.246,1.705-3.438c0.412-1.052,1.032-2.257,0.78-3.417c-0.229-1.054-1.176-1.72-2.243-1.444
			c-1.175,0.303-1.736,1.441-2.168,2.469c-1.014,2.417-1.645,5.048-1.216,7.671c-0.206,0.114-0.42,0.218-0.645,0.306
			c-1.688,0.661-3.716,0.499-4.857-1.051c-0.068-0.092-0.122-0.194-0.183-0.291c1.692-1.78,2.947-4.087,3.909-6.311
			c1.096-2.534,1.821-5.224,2.121-7.97c0.208-1.897,0.73-5.646-1.902-6.18c-2.276-0.462-3.554,2.583-4.248,4.197
			c-1.056,2.452-1.702,5.056-1.925,7.715c-0.194,2.313-0.212,5.912,0.982,8.391c-0.305,0.285-0.623,0.554-0.967,0.787
			c-1.643,1.115-3.718,1.415-5.43,0.28c-0.665-0.44-1.191-1.014-1.601-1.667c1.424-1.639,2.231-3.812,2.396-5.957
			c0.081-1.021,0.102-2.292-0.595-3.128c-0.677-0.814-1.806-0.766-2.59-0.133c-0.963,0.777-1.076,2.126-1.174,3.271
			c-0.108,1.28-0.084,2.576,0.187,3.836c0.146,0.681,0.393,1.347,0.713,1.972c-0.663,0.665-1.443,1.202-2.342,1.504
			c-1.83,0.614-4.055,0.191-5.099-1.552c-0.476-0.792-0.63-1.711-0.385-2.604c0.148-0.54-0.698-0.743-0.847-0.203
			c-0.578,2.104,0.692,4.317,2.672,5.118c2.192,0.889,4.628,0.151,6.332-1.376c0.043-0.038,0.08-0.082,0.122-0.121
			c0.727,1.078,1.727,1.955,2.989,2.39c2.161,0.747,4.426-0.194,6.053-1.649c0.836,1.254,2.102,2.062,3.988,1.978
			c0.905-0.041,1.743-0.289,2.507-0.681c0.526,1.999,1.718,3.803,3.549,4.845c1.966,1.12,4.439,1.14,6.286-0.239
			c0.848-0.632,1.461-1.47,1.792-2.473C587.782,99.059,586.935,98.858,586.761,99.388 M559.94,91.254
			c-0.09-1.078-0.049-2.189,0.111-3.259c0.078-0.527,0.191-1.106,0.538-1.53c0.305-0.371,0.87-0.672,1.338-0.419
			c0.813,0.441,0.707,1.864,0.663,2.624c-0.066,1.157-0.353,2.315-0.827,3.37c-0.302,0.671-0.686,1.326-1.15,1.917
			C560.238,93.107,560.017,92.177,559.94,91.254 M568.876,90.073c-0.102-2.223,0.114-4.451,0.635-6.615
			c0.501-2.083,1.257-4.222,2.396-6.047c0.405-0.649,1.053-1.475,1.895-1.49c1.172-0.02,1.578,1.345,1.624,2.282
			c0.109,2.189-0.266,4.467-0.802,6.584c-0.562,2.215-1.402,4.354-2.505,6.355c-0.683,1.239-1.463,2.524-2.434,3.605
			C569.067,93.302,568.944,91.572,568.876,90.073 M577.55,89.891c0.342-0.889,0.769-2.295,1.803-2.59
			c0.53-0.151,0.995,0.092,1.176,0.613c0.193,0.559,0.014,1.159-0.171,1.694c-0.347,1.008-0.744,2.01-1.201,2.972
			c-0.62,1.301-1.435,2.574-2.562,3.468c-0.116-0.974-0.088-1.97,0.065-2.93C576.835,92.014,577.148,90.933,577.55,89.891"/>
		<path clip-path="url(#SVGID_2_)" fill="#191930" d="M557.177,64.599c-4.437,2.119-8.164,5.645-10.566,9.932
			c-2.445,4.364-3.408,9.468-2.798,14.43c0.35,2.837,1.193,5.583,2.505,8.123c0.258,0.499,0.999,0.042,0.743-0.454
			c-2.252-4.361-3.052-9.444-2.266-14.288c0.764-4.713,3.047-9.076,6.413-12.454c1.865-1.872,4.039-3.407,6.423-4.546
			C558.137,65.1,557.679,64.359,557.177,64.599"/>
	</g>
</g>
</svg>

