<?xml version="1.0" encoding="UTF-8"?><svg xmlns="http://www.w3.org/2000/svg" xmlns:xlink="http://www.w3.org/1999/xlink" width="375pt" zoomAndPan="magnify" viewBox="0 0 375 374.999991" height="374.999991pt" preserveAspectRatio="xMidYMid meet" version="1.2"><defs><clipPath xml:id="clip1" id="clip1"><path d="M 103 287 L 262 287 L 262 355.945312 L 103 355.945312 Z M 103 287 "/></clipPath><clipPath xml:id="clip2" id="clip2"><path d="M 142 19.195312 L 165 19.195312 L 165 42 L 142 42 Z M 142 19.195312 "/></clipPath><clipPath xml:id="clip3" id="clip3"><path d="M 37.5 96 L 74 96 L 74 133 L 37.5 133 Z M 37.5 96 "/></clipPath></defs><g xml:id="surface1" id="surface1"><path style=" stroke:none;fill-rule:nonzero;fill:rgb(87.838745%,100%,98.429871%);fill-opacity:1;" d="M 187.484375 5.984375 C 184.515625 5.984375 181.546875 6.058594 178.582031 6.203125 C 175.613281 6.351562 172.652344 6.570312 169.695312 6.859375 C 166.738281 7.152344 163.792969 7.515625 160.855469 7.949219 C 157.917969 8.386719 154.992188 8.894531 152.078125 9.472656 C 149.164062 10.054688 146.265625 10.703125 143.386719 11.425781 C 140.503906 12.148438 137.640625 12.9375 134.800781 13.800781 C 131.957031 14.664062 129.136719 15.59375 126.339844 16.597656 C 123.542969 17.597656 120.773438 18.664062 118.027344 19.800781 C 115.285156 20.9375 112.570312 22.140625 109.886719 23.414062 C 107.199219 24.683594 104.546875 26.015625 101.929688 27.417969 C 99.308594 28.816406 96.722656 30.28125 94.175781 31.808594 C 91.628906 33.335938 89.121094 34.925781 86.648438 36.574219 C 84.179688 38.226562 81.753906 39.933594 79.367188 41.703125 C 76.980469 43.472656 74.640625 45.300781 72.34375 47.183594 C 70.046875 49.070312 67.800781 51.007812 65.597656 53.003906 C 63.398438 55 61.246094 57.046875 59.144531 59.144531 C 57.046875 61.246094 55 63.398438 53.003906 65.597656 C 51.007812 67.800781 49.070312 70.046875 47.183594 72.34375 C 45.300781 74.640625 43.472656 76.980469 41.703125 79.367188 C 39.933594 81.753906 38.226562 84.179688 36.574219 86.648438 C 34.925781 89.121094 33.335938 91.628906 31.808594 94.175781 C 30.28125 96.722656 28.816406 99.308594 27.417969 101.925781 C 26.015625 104.546875 24.683594 107.199219 23.414062 109.886719 C 22.140625 112.570312 20.9375 115.285156 19.800781 118.027344 C 18.664062 120.773438 17.597656 123.542969 16.597656 126.339844 C 15.59375 129.136719 14.664062 131.957031 13.800781 134.800781 C 12.9375 137.640625 12.148438 140.503906 11.425781 143.386719 C 10.703125 146.265625 10.054688 149.164062 9.472656 152.078125 C 8.894531 154.992188 8.386719 157.917969 7.949219 160.855469 C 7.515625 163.792969 7.152344 166.738281 6.859375 169.695312 C 6.570312 172.652344 6.351562 175.613281 6.203125 178.582031 C 6.058594 181.546875 5.984375 184.515625 5.984375 187.484375 C 5.984375 190.457031 6.058594 193.425781 6.203125 196.390625 C 6.351562 199.359375 6.570312 202.320312 6.859375 205.277344 C 7.152344 208.234375 7.515625 211.179688 7.949219 214.117188 C 8.386719 217.054688 8.894531 219.980469 9.472656 222.894531 C 10.054688 225.808594 10.703125 228.707031 11.425781 231.585938 C 12.148438 234.46875 12.9375 237.332031 13.800781 240.171875 C 14.664062 243.015625 15.59375 245.835938 16.597656 248.632812 C 17.597656 251.429688 18.664062 254.199219 19.800781 256.941406 C 20.9375 259.6875 22.140625 262.402344 23.414062 265.085938 C 24.683594 267.773438 26.015625 270.425781 27.417969 273.042969 C 28.816406 275.664062 30.28125 278.25 31.808594 280.796875 C 33.335938 283.34375 34.925781 285.851562 36.574219 288.320312 C 38.226562 290.792969 39.933594 293.21875 41.703125 295.605469 C 43.472656 297.992188 45.300781 300.332031 47.183594 302.628906 C 49.070312 304.925781 51.007812 307.171875 53.003906 309.375 C 55 311.574219 57.046875 313.726562 59.144531 315.824219 C 61.246094 317.925781 63.398438 319.972656 65.597656 321.96875 C 67.800781 323.964844 70.046875 325.902344 72.34375 327.789062 C 74.640625 329.671875 76.980469 331.5 79.367188 333.269531 C 81.753906 335.039062 84.179688 336.746094 86.648438 338.398438 C 89.121094 340.046875 91.628906 341.636719 94.175781 343.164062 C 96.722656 344.691406 99.308594 346.15625 101.929688 347.554688 C 104.546875 348.957031 107.199219 350.289062 109.886719 351.558594 C 112.570312 352.832031 115.285156 354.035156 118.027344 355.171875 C 120.773438 356.308594 123.542969 357.375 126.339844 358.375 C 129.136719 359.378906 131.957031 360.308594 134.800781 361.171875 C 137.640625 362.03125 140.503906 362.824219 143.386719 363.546875 C 146.265625 364.269531 149.164062 364.917969 152.078125 365.5 C 154.992188 366.078125 157.917969 366.585938 160.855469 367.023438 C 163.792969 367.457031 166.738281 367.820312 169.695312 368.113281 C 172.652344 368.402344 175.613281 368.621094 178.582031 368.769531 C 181.546875 368.914062 184.515625 368.984375 187.484375 368.984375 C 190.457031 368.984375 193.425781 368.914062 196.390625 368.769531 C 199.359375 368.621094 202.320312 368.402344 205.277344 368.113281 C 208.234375 367.820312 211.179688 367.457031 214.117188 367.023438 C 217.054688 366.585938 219.980469 366.078125 222.894531 365.5 C 225.808594 364.917969 228.707031 364.269531 231.585938 363.546875 C 234.46875 362.824219 237.332031 362.03125 240.171875 361.171875 C 243.015625 360.308594 245.835938 359.378906 248.632812 358.375 C 251.429688 357.375 254.199219 356.308594 256.941406 355.171875 C 259.6875 354.035156 262.402344 352.832031 265.085938 351.558594 C 267.773438 350.289062 270.425781 348.957031 273.042969 347.554688 C 275.664062 346.15625 278.25 344.691406 280.796875 343.164062 C 283.34375 341.636719 285.851562 340.046875 288.320312 338.398438 C 290.792969 336.746094 293.21875 335.039062 295.605469 333.269531 C 297.992188 331.5 300.332031 329.671875 302.628906 327.789062 C 304.925781 325.902344 307.171875 323.964844 309.375 321.96875 C 311.574219 319.972656 313.726562 317.925781 315.824219 315.824219 C 317.925781 313.726562 319.972656 311.574219 321.96875 309.375 C 323.964844 307.171875 325.902344 304.925781 327.789062 302.628906 C 329.671875 300.332031 331.5 297.992188 333.269531 295.605469 C 335.039062 293.21875 336.746094 290.792969 338.398438 288.320312 C 340.046875 285.851562 341.636719 283.34375 343.164062 280.796875 C 344.691406 278.25 346.15625 275.664062 347.554688 273.042969 C 348.957031 270.425781 350.289062 267.773438 351.558594 265.085938 C 352.832031 262.402344 354.035156 259.6875 355.171875 256.941406 C 356.308594 254.199219 357.375 251.429688 358.375 248.632812 C 359.378906 245.835938 360.308594 243.015625 361.171875 240.171875 C 362.03125 237.332031 362.824219 234.46875 363.546875 231.585938 C 364.269531 228.707031 364.917969 225.808594 365.5 222.894531 C 366.078125 219.980469 366.585938 217.054688 367.023438 214.117188 C 367.457031 211.179688 367.820312 208.234375 368.113281 205.277344 C 368.402344 202.320312 368.621094 199.359375 368.769531 196.390625 C 368.914062 193.425781 368.984375 190.457031 368.984375 187.484375 C 368.984375 184.515625 368.914062 181.546875 368.769531 178.582031 C 368.621094 175.613281 368.402344 172.652344 368.113281 169.695312 C 367.820312 166.738281 367.457031 163.792969 367.023438 160.855469 C 366.585938 157.917969 366.078125 154.992188 365.5 152.078125 C 364.917969 149.164062 364.269531 146.265625 363.546875 143.386719 C 362.824219 140.503906 362.03125 137.640625 361.171875 134.800781 C 360.308594 131.957031 359.378906 129.136719 358.375 126.339844 C 357.375 123.542969 356.308594 120.773438 355.171875 118.027344 C 354.035156 115.285156 352.832031 112.570312 351.558594 109.886719 C 350.289062 107.199219 348.957031 104.546875 347.554688 101.925781 C 346.15625 99.308594 344.691406 96.722656 343.164062 94.175781 C 341.636719 91.628906 340.046875 89.121094 338.398438 86.648438 C 336.746094 84.179688 335.039062 81.753906 333.269531 79.367188 C 331.5 76.980469 329.671875 74.640625 327.789062 72.34375 C 325.902344 70.046875 323.964844 67.800781 321.96875 65.597656 C 319.972656 63.398438 317.925781 61.246094 315.824219 59.144531 C 313.726562 57.046875 311.574219 55 309.375 53.003906 C 307.171875 51.007812 304.925781 49.070312 302.628906 47.183594 C 300.332031 45.300781 297.992188 43.472656 295.605469 41.703125 C 293.21875 39.933594 290.792969 38.226562 288.320312 36.574219 C 285.851562 34.925781 283.34375 33.335938 280.796875 31.808594 C 278.25 30.28125 275.664062 28.816406 273.042969 27.417969 C 270.425781 26.015625 267.773438 24.683594 265.085938 23.414062 C 262.402344 22.140625 259.6875 20.9375 256.941406 19.800781 C 254.199219 18.664062 251.429688 17.597656 248.632812 16.597656 C 245.835938 15.59375 243.015625 14.664062 240.171875 13.800781 C 237.332031 12.9375 234.46875 12.148438 231.585938 11.425781 C 228.707031 10.703125 225.808594 10.054688 222.894531 9.472656 C 219.980469 8.894531 217.054688 8.386719 214.117188 7.949219 C 211.179688 7.515625 208.234375 7.152344 205.277344 6.859375 C 202.320312 6.570312 199.359375 6.351562 196.390625 6.203125 C 193.425781 6.058594 190.457031 5.984375 187.484375 5.984375 Z M 187.484375 5.984375 "/><path style=" stroke:none;fill-rule:nonzero;fill:rgb(79.60968%,35.688782%,23.139954%);fill-opacity:1;" d="M 234.042969 190.820312 C 221.964844 203.519531 215.203125 220.109375 214.769531 237.683594 C 206.179688 240.332031 197.574219 241.785156 188.972656 242.0625 L 188.972656 212.707031 C 188.972656 211.007812 187.589844 209.625 185.890625 209.625 C 184.183594 209.625 182.8125 211.007812 182.8125 212.707031 L 182.8125 242.0625 C 174.1875 241.785156 165.582031 240.332031 157.015625 237.683594 C 156.570312 220.398438 149.605469 203.617188 137.199219 190.246094 C 125.074219 177.195312 118.792969 160.140625 119.515625 142.214844 C 120.957031 106.972656 150.6875 78.539062 185.941406 78.539062 C 186.144531 78.539062 186.375 78.539062 186.589844 78.539062 C 222.839844 78.9375 252.34375 108.742188 252.34375 145.007812 C 252.34375 162.175781 245.847656 178.449219 234.042969 190.820312 Z M 186.652344 72.378906 C 186.410156 72.378906 186.167969 72.378906 185.941406 72.378906 C 147.414062 72.378906 114.929688 103.445312 113.355469 141.964844 C 112.570312 161.546875 119.441406 180.179688 132.675781 194.433594 C 144.457031 207.121094 150.941406 223.09375 150.941406 239.441406 L 150.941406 239.871094 C 150.941406 239.910156 150.917969 239.945312 150.917969 239.992188 C 150.917969 260.167969 166.269531 275.984375 185.878906 275.984375 C 205.46875 275.984375 220.820312 260.203125 220.84375 240.054688 C 220.84375 240.042969 220.84375 240.042969 220.84375 240.03125 C 220.84375 240.03125 220.84375 240.015625 220.84375 240.015625 L 220.84375 239.441406 C 220.84375 222.804688 227.125 207.046875 238.496094 195.070312 C 251.390625 181.542969 258.503906 163.761719 258.503906 145.007812 C 258.503906 105.382812 226.269531 72.8125 186.652344 72.378906 "/><path style=" stroke:none;fill-rule:nonzero;fill:rgb(79.60968%,35.688782%,23.139954%);fill-opacity:1;" d="M 185.878906 189.570312 C 183.714844 189.570312 181.957031 191.328125 181.957031 193.496094 C 181.957031 195.660156 183.714844 197.417969 185.878906 197.417969 C 188.046875 197.417969 189.804688 195.660156 189.804688 193.496094 C 189.804688 191.328125 188.046875 189.570312 185.878906 189.570312 "/><path style=" stroke:none;fill-rule:nonzero;fill:rgb(79.60968%,35.688782%,23.139954%);fill-opacity:1;" d="M 205.433594 155.230469 C 196.625 157.15625 191.75 161.957031 187.445312 172.960938 C 187.121094 173.777344 186.421875 173.863281 185.832031 173.886719 C 185.386719 173.921875 184.675781 173.789062 184.351562 172.960938 C 180.046875 161.96875 175.171875 157.15625 166.367188 155.230469 C 164.703125 154.867188 163.070312 155.902344 162.695312 157.574219 C 162.335938 159.238281 163.394531 160.886719 165.054688 161.246094 C 170.925781 162.535156 174.644531 165.050781 178.613281 175.199219 C 179.769531 178.160156 182.570312 180.050781 185.664062 180.050781 C 185.785156 180.050781 185.890625 180.050781 186.011719 180.050781 C 189.226562 180.050781 192.027344 178.160156 193.183594 175.199219 C 197.152344 165.050781 200.871094 162.535156 206.742188 161.246094 C 208.414062 160.886719 209.460938 159.238281 209.101562 157.574219 C 208.726562 155.902344 207.082031 154.867188 205.433594 155.230469 "/><g clip-rule="nonzero" clip-path="url(#clip1)"><path style=" stroke:none;fill-rule:nonzero;fill:rgb(79.60968%,35.688782%,23.139954%);fill-opacity:1;" d="M 177.265625 293.714844 C 163.789062 293.714844 153.179688 297.84375 145.753906 301.359375 C 137.488281 305.269531 115.472656 320.628906 110.441406 328.5 C 110.035156 329.140625 109.851562 329.597656 109.9375 330.390625 C 110.371094 333.796875 124.375 348.011719 128.671875 349.410156 C 129.847656 349.792969 130.4375 349.613281 131.316406 349.035156 C 132.003906 348.601562 133.050781 347.761719 134.265625 346.785156 C 137.71875 344.015625 142.445312 340.226562 147.488281 338.457031 C 156.332031 335.351562 168.746094 336.265625 178.710938 336.988281 C 182.714844 337.289062 186.519531 337.542969 189.203125 337.492188 C 202.90625 337.15625 248.625 325.277344 255.050781 319.472656 C 255.542969 319.039062 255.746094 318.425781 255.699219 317.65625 C 255.617188 316.453125 254.859375 315.199219 253.773438 314.476562 C 248.925781 311.226562 239.433594 313.695312 231.046875 315.875 C 227.039062 316.910156 223.261719 317.886719 219.941406 318.28125 C 215.910156 318.894531 211.496094 318.257812 206.816406 317.582031 C 200.234375 316.644531 193.425781 315.65625 188.324219 318.511719 C 186.84375 319.339844 184.953125 318.8125 184.136719 317.320312 C 183.292969 315.828125 183.835938 313.960938 185.316406 313.128906 C 192.246094 309.265625 200.449219 310.445312 207.695312 311.492188 C 211.917969 312.09375 215.898438 312.671875 219.039062 312.191406 C 219.050781 312.191406 219.0625 312.191406 219.0625 312.179688 C 221.519531 311.804688 222.660156 310.035156 222.914062 308.53125 C 223.261719 306.4375 222.144531 304.5 219.929688 303.332031 C 216.355469 301.453125 201.738281 297.300781 190.96875 295.121094 C 186.121094 294.136719 181.550781 293.714844 177.265625 293.714844 Z M 129.765625 355.777344 C 128.863281 355.777344 127.863281 355.632812 126.769531 355.273438 C 121.101562 353.441406 104.546875 337.6875 103.8125 331.066406 C 103.511719 328.308594 104.425781 326.46875 105.257812 325.179688 C 111.320312 315.695312 134.949219 299.648438 143.121094 295.785156 C 153.695312 290.777344 170.289062 284.636719 192.195312 289.082031 C 201.414062 290.945312 217.910156 295.316406 222.792969 297.878906 C 227.339844 300.261719 229.773438 304.835938 228.988281 309.542969 C 228.953125 309.710938 228.917969 309.890625 228.882812 310.0625 C 229.085938 310.011719 229.289062 309.953125 229.496094 309.902344 C 239.144531 307.402344 250.070312 304.558594 257.203125 309.363281 C 259.886719 311.15625 261.621094 314.09375 261.835938 317.210938 C 262.027344 319.871094 261.054688 322.351562 259.175781 324.046875 C 251.078125 331.367188 203.6875 343.308594 189.359375 343.65625 C 186.335938 343.703125 182.597656 343.453125 178.265625 343.136719 C 168.855469 342.453125 157.148438 341.597656 149.53125 344.269531 C 145.480469 345.691406 141.21875 349.109375 138.113281 351.601562 C 136.769531 352.683594 135.601562 353.609375 134.664062 354.222656 C 133.519531 354.945312 131.917969 355.777344 129.765625 355.777344 "/></g><g clip-rule="nonzero" clip-path="url(#clip2)"><path style=" stroke:none;fill-rule:nonzero;fill:rgb(79.60968%,35.688782%,23.139954%);fill-opacity:1;" d="M 164.96875 30.210938 C 165.089844 36.328125 160.242188 41.371094 154.128906 41.492188 C 148.027344 41.609375 142.976562 36.761719 142.855469 30.644531 C 142.734375 24.542969 147.597656 19.488281 153.695312 19.367188 C 159.796875 19.257812 164.847656 24.109375 164.96875 30.210938 "/></g><path style=" stroke:none;fill-rule:nonzero;fill:rgb(79.60968%,35.688782%,23.139954%);fill-opacity:1;" d="M 276.949219 41.273438 C 277.054688 47.390625 272.207031 52.433594 266.105469 52.554688 C 259.996094 52.671875 254.953125 47.824219 254.832031 41.707031 C 254.714844 35.605469 259.5625 30.5625 265.675781 30.441406 C 271.773438 30.320312 276.828125 35.171875 276.949219 41.273438 "/><path style=" stroke:none;fill-rule:nonzero;fill:rgb(79.60968%,35.688782%,23.139954%);fill-opacity:1;" d="M 298.015625 239.800781 C 295.441406 245.324219 288.859375 247.722656 283.324219 245.132812 C 277.789062 242.546875 275.40625 235.960938 277.980469 230.421875 C 280.582031 224.886719 287.164062 222.503906 292.683594 225.089844 C 298.21875 227.679688 300.601562 234.261719 298.015625 239.800781 "/><path style=" stroke:none;fill-rule:nonzero;fill:rgb(79.60968%,35.688782%,23.139954%);fill-opacity:1;" d="M 84.046875 231.554688 C 84.152344 237.65625 79.304688 242.714844 73.203125 242.820312 C 67.09375 242.941406 62.050781 238.089844 61.929688 231.988281 C 61.8125 225.875 66.660156 220.832031 72.773438 220.710938 C 78.871094 220.589844 83.925781 225.441406 84.046875 231.554688 "/><path style=" stroke:none;fill-rule:nonzero;fill:rgb(79.60968%,35.688782%,23.139954%);fill-opacity:1;" d="M 333.328125 151.738281 C 329.117188 160.730469 318.421875 164.617188 309.433594 160.40625 C 300.433594 156.203125 296.558594 145.503906 300.757812 136.5 C 304.96875 127.507812 315.664062 123.621094 324.652344 127.832031 C 333.652344 132.035156 337.527344 142.746094 333.328125 151.738281 "/><g clip-rule="nonzero" clip-path="url(#clip3)"><path style=" stroke:none;fill-rule:nonzero;fill:rgb(79.60968%,35.688782%,23.139954%);fill-opacity:1;" d="M 73.746094 114.050781 C 73.949219 123.96875 66.058594 132.175781 56.132812 132.382812 C 46.207031 132.574219 38.011719 124.679688 37.808594 114.75 C 37.617188 104.816406 45.507812 96.609375 55.433594 96.414062 C 65.359375 96.222656 73.554688 104.121094 73.746094 114.050781 "/></g></g></svg>