<?xml version="1.0" encoding="UTF-8"?><svg xmlns="http://www.w3.org/2000/svg" xmlns:xlink="http://www.w3.org/1999/xlink" width="375pt" zoomAndPan="magnify" viewBox="0 0 375 112.499997" height="112.499997pt" preserveAspectRatio="xMidYMid meet" version="1.2"><defs><g/><clipPath xml:id="clip1" id="clip1"><path d="M 22 83 L 67 83 L 67 102.714844 L 22 102.714844 Z M 22 83 "/></clipPath><clipPath xml:id="clip2" id="clip2"><path d="M 33 9.378906 L 40 9.378906 L 40 16 L 33 16 Z M 33 9.378906 "/></clipPath><clipPath xml:id="clip3" id="clip3"><path d="M 4.386719 30 L 15 30 L 15 41 L 4.386719 41 Z M 4.386719 30 "/></clipPath></defs><g xml:id="surface1" id="surface1"><path style=" stroke:none;fill-rule:nonzero;fill:rgb(79.60968%,35.688782%,23.139954%);fill-opacity:1;" d="M 58.6875 56.949219 C 55.351562 60.46875 53.480469 65.066406 53.363281 69.9375 C 50.988281 70.671875 48.613281 71.074219 46.234375 71.152344 L 46.234375 63.015625 C 46.234375 62.542969 45.851562 62.160156 45.382812 62.160156 C 44.914062 62.160156 44.535156 62.542969 44.535156 63.015625 L 44.535156 71.152344 C 42.148438 71.074219 39.773438 70.671875 37.40625 69.9375 C 37.285156 65.144531 35.359375 60.496094 31.933594 56.789062 C 28.582031 53.171875 26.847656 48.445312 27.046875 43.476562 C 27.445312 33.710938 35.660156 25.828125 45.398438 25.828125 C 45.453125 25.828125 45.515625 25.828125 45.578125 25.828125 C 55.59375 25.9375 63.742188 34.199219 63.742188 44.25 C 63.742188 49.007812 61.949219 53.519531 58.6875 56.949219 Z M 45.59375 24.121094 C 45.527344 24.121094 45.460938 24.121094 45.398438 24.121094 C 34.753906 24.121094 25.78125 32.730469 25.34375 43.40625 C 25.128906 48.835938 27.027344 54 30.683594 57.949219 C 33.9375 61.464844 35.726562 65.894531 35.726562 70.421875 L 35.726562 70.542969 C 35.726562 70.554688 35.722656 70.5625 35.722656 70.578125 C 35.722656 76.167969 39.964844 80.550781 45.382812 80.550781 C 50.792969 80.550781 55.035156 76.179688 55.039062 70.59375 C 55.039062 70.589844 55.039062 70.589844 55.039062 70.585938 C 55.039062 70.585938 55.039062 70.582031 55.039062 70.582031 L 55.039062 70.421875 C 55.039062 65.8125 56.777344 61.445312 59.917969 58.125 C 63.480469 54.375 65.445312 49.449219 65.445312 44.25 C 65.445312 33.269531 56.539062 24.242188 45.59375 24.121094 "/><path style=" stroke:none;fill-rule:nonzero;fill:rgb(79.60968%,35.688782%,23.139954%);fill-opacity:1;" d="M 45.382812 56.601562 C 44.78125 56.601562 44.296875 57.089844 44.296875 57.691406 C 44.296875 58.289062 44.78125 58.777344 45.382812 58.777344 C 45.980469 58.777344 46.464844 58.289062 46.464844 57.691406 C 46.464844 57.089844 45.980469 56.601562 45.382812 56.601562 "/><path style=" stroke:none;fill-rule:nonzero;fill:rgb(79.60968%,35.688782%,23.139954%);fill-opacity:1;" d="M 50.78125 47.082031 C 48.347656 47.617188 47.003906 48.949219 45.8125 52 C 45.722656 52.226562 45.53125 52.25 45.367188 52.253906 C 45.246094 52.265625 45.046875 52.226562 44.957031 52 C 43.769531 48.953125 42.421875 47.617188 39.988281 47.082031 C 39.53125 46.984375 39.078125 47.269531 38.976562 47.734375 C 38.875 48.195312 39.167969 48.652344 39.628906 48.753906 C 41.25 49.109375 42.277344 49.804688 43.375 52.617188 C 43.691406 53.4375 44.46875 53.964844 45.320312 53.964844 C 45.355469 53.964844 45.382812 53.964844 45.417969 53.964844 C 46.304688 53.964844 47.078125 53.4375 47.398438 52.617188 C 48.496094 49.804688 49.523438 49.109375 51.144531 48.753906 C 51.605469 48.652344 51.894531 48.195312 51.796875 47.734375 C 51.691406 47.269531 51.238281 46.984375 50.78125 47.082031 "/><g clip-rule="nonzero" clip-path="url(#clip1)"><path style=" stroke:none;fill-rule:nonzero;fill:rgb(79.60968%,35.688782%,23.139954%);fill-opacity:1;" d="M 43 85.464844 C 39.277344 85.464844 36.347656 86.609375 34.296875 87.585938 C 32.011719 88.667969 25.929688 92.925781 24.539062 95.109375 C 24.425781 95.285156 24.375 95.410156 24.398438 95.632812 C 24.519531 96.574219 28.390625 100.515625 29.574219 100.902344 C 29.902344 101.007812 30.0625 100.960938 30.308594 100.800781 C 30.496094 100.679688 30.785156 100.445312 31.121094 100.175781 C 32.074219 99.410156 33.382812 98.355469 34.773438 97.867188 C 37.21875 97.007812 40.648438 97.261719 43.398438 97.460938 C 44.507812 97.542969 45.558594 97.613281 46.296875 97.601562 C 50.085938 97.507812 62.714844 94.214844 64.492188 92.605469 C 64.628906 92.484375 64.683594 92.316406 64.671875 92.101562 C 64.648438 91.769531 64.4375 91.421875 64.136719 91.222656 C 62.796875 90.320312 60.175781 91.003906 57.859375 91.609375 C 56.753906 91.894531 55.707031 92.164062 54.792969 92.277344 C 53.679688 92.445312 52.457031 92.269531 51.164062 92.082031 C 49.347656 91.820312 47.464844 91.546875 46.054688 92.339844 C 45.648438 92.570312 45.125 92.421875 44.898438 92.007812 C 44.667969 91.59375 44.816406 91.078125 45.226562 90.847656 C 47.140625 89.777344 49.40625 90.105469 51.40625 90.394531 C 52.574219 90.5625 53.675781 90.722656 54.542969 90.585938 C 54.546875 90.585938 54.546875 90.585938 54.546875 90.585938 C 55.226562 90.480469 55.542969 89.992188 55.613281 89.574219 C 55.707031 88.992188 55.398438 88.457031 54.789062 88.132812 C 53.800781 87.613281 49.761719 86.460938 46.789062 85.855469 C 45.449219 85.582031 44.183594 85.464844 43 85.464844 Z M 29.878906 102.667969 C 29.628906 102.667969 29.351562 102.628906 29.050781 102.527344 C 27.484375 102.019531 22.910156 97.652344 22.707031 95.820312 C 22.625 95.054688 22.878906 94.542969 23.105469 94.1875 C 24.78125 91.558594 31.3125 87.109375 33.566406 86.039062 C 36.488281 84.652344 41.074219 82.949219 47.125 84.183594 C 49.671875 84.699219 54.230469 85.910156 55.578125 86.621094 C 56.835938 87.28125 57.507812 88.550781 57.289062 89.851562 C 57.28125 89.898438 57.269531 89.949219 57.261719 89.996094 C 57.316406 89.984375 57.375 89.96875 57.429688 89.953125 C 60.097656 89.257812 63.113281 88.472656 65.085938 89.804688 C 65.828125 90.300781 66.304688 91.113281 66.367188 91.980469 C 66.417969 92.714844 66.148438 93.402344 65.628906 93.875 C 63.394531 95.902344 50.300781 99.210938 46.339844 99.308594 C 45.507812 99.320312 44.472656 99.25 43.277344 99.164062 C 40.675781 98.972656 37.445312 98.738281 35.339844 99.476562 C 34.21875 99.871094 33.042969 100.820312 32.183594 101.511719 C 31.8125 101.808594 31.488281 102.066406 31.230469 102.238281 C 30.914062 102.4375 30.472656 102.667969 29.878906 102.667969 "/></g><g clip-rule="nonzero" clip-path="url(#clip2)"><path style=" stroke:none;fill-rule:nonzero;fill:rgb(79.60968%,35.688782%,23.139954%);fill-opacity:1;" d="M 39.605469 12.433594 C 39.636719 14.128906 38.296875 15.527344 36.609375 15.558594 C 34.925781 15.59375 33.527344 14.25 33.496094 12.554688 C 33.460938 10.863281 34.804688 9.460938 36.488281 9.429688 C 38.175781 9.398438 39.570312 10.742188 39.605469 12.433594 "/></g><path style=" stroke:none;fill-rule:nonzero;fill:rgb(79.60968%,35.688782%,23.139954%);fill-opacity:1;" d="M 70.539062 15.5 C 70.570312 17.195312 69.230469 18.59375 67.546875 18.625 C 65.855469 18.660156 64.464844 17.316406 64.429688 15.621094 C 64.398438 13.929688 65.738281 12.53125 67.425781 12.496094 C 69.109375 12.464844 70.507812 13.808594 70.539062 15.5 "/><path style=" stroke:none;fill-rule:nonzero;fill:rgb(79.60968%,35.688782%,23.139954%);fill-opacity:1;" d="M 76.359375 70.523438 C 75.648438 72.054688 73.832031 72.71875 72.300781 72 C 70.773438 71.285156 70.113281 69.460938 70.828125 67.925781 C 71.542969 66.390625 73.363281 65.730469 74.886719 66.445312 C 76.417969 67.164062 77.074219 68.988281 76.359375 70.523438 "/><path style=" stroke:none;fill-rule:nonzero;fill:rgb(79.60968%,35.688782%,23.139954%);fill-opacity:1;" d="M 17.246094 68.238281 C 17.277344 69.929688 15.9375 71.332031 14.25 71.359375 C 12.5625 71.394531 11.171875 70.050781 11.136719 68.359375 C 11.105469 66.664062 12.445312 65.265625 14.132812 65.234375 C 15.816406 65.199219 17.214844 66.542969 17.246094 68.238281 "/><path style=" stroke:none;fill-rule:nonzero;fill:rgb(79.60968%,35.688782%,23.139954%);fill-opacity:1;" d="M 86.117188 46.117188 C 84.953125 48.609375 82 49.6875 79.515625 48.519531 C 77.027344 47.355469 75.957031 44.386719 77.117188 41.894531 C 78.28125 39.402344 81.238281 38.324219 83.71875 39.492188 C 86.207031 40.65625 87.277344 43.625 86.117188 46.117188 "/><g clip-rule="nonzero" clip-path="url(#clip3)"><path style=" stroke:none;fill-rule:nonzero;fill:rgb(79.60968%,35.688782%,23.139954%);fill-opacity:1;" d="M 14.402344 35.671875 C 14.457031 38.417969 12.277344 40.695312 9.535156 40.75 C 6.792969 40.804688 4.527344 38.617188 4.472656 35.863281 C 4.417969 33.113281 6.601562 30.835938 9.34375 30.785156 C 12.085938 30.730469 14.347656 32.917969 14.402344 35.671875 "/></g><g style="fill:rgb(79.60968%,35.688782%,23.139954%);fill-opacity:1;"><g transform="translate(96.555326, 80.354145)"><path style="stroke:none;" d="M 21.046875 0.40625 C 17.472656 0.40625 14.050781 -0.160156 10.78125 -1.296875 C 7.519531 -2.441406 5 -3.953125 3.21875 -5.828125 L 5.203125 -9.734375 C 6.941406 -7.992188 9.25 -6.585938 12.125 -5.515625 C 15.007812 -4.441406 17.984375 -3.90625 21.046875 -3.90625 C 25.335938 -3.90625 28.554688 -4.691406 30.703125 -6.265625 C 32.847656 -7.847656 33.921875 -9.894531 33.921875 -12.40625 C 33.921875 -14.320312 33.335938 -15.847656 32.171875 -16.984375 C 31.003906 -18.128906 29.578125 -19.007812 27.890625 -19.625 C 26.203125 -20.25 23.847656 -20.925781 20.828125 -21.65625 C 17.222656 -22.570312 14.347656 -23.453125 12.203125 -24.296875 C 10.054688 -25.140625 8.21875 -26.425781 6.6875 -28.15625 C 5.15625 -29.894531 4.390625 -32.25 4.390625 -35.21875 C 4.390625 -37.644531 5.023438 -39.847656 6.296875 -41.828125 C 7.578125 -43.816406 9.539062 -45.40625 12.1875 -46.59375 C 14.84375 -47.789062 18.132812 -48.390625 22.0625 -48.390625 C 24.800781 -48.390625 27.484375 -48.007812 30.109375 -47.25 C 32.742188 -46.5 35.019531 -45.460938 36.9375 -44.140625 L 35.21875 -40.09375 C 33.207031 -41.414062 31.0625 -42.40625 28.78125 -43.0625 C 26.5 -43.726562 24.257812 -44.0625 22.0625 -44.0625 C 17.863281 -44.0625 14.703125 -43.25 12.578125 -41.625 C 10.453125 -40.007812 9.390625 -37.921875 9.390625 -35.359375 C 9.390625 -33.441406 9.972656 -31.898438 11.140625 -30.734375 C 12.304688 -29.566406 13.765625 -28.675781 15.515625 -28.0625 C 17.273438 -27.445312 19.640625 -26.773438 22.609375 -26.046875 C 26.128906 -25.171875 28.972656 -24.3125 31.140625 -23.46875 C 33.316406 -22.625 35.15625 -21.34375 36.65625 -19.625 C 38.164062 -17.914062 38.921875 -15.597656 38.921875 -12.671875 C 38.921875 -10.253906 38.269531 -8.050781 36.96875 -6.0625 C 35.664062 -4.070312 33.664062 -2.492188 30.96875 -1.328125 C 28.28125 -0.171875 24.972656 0.40625 21.046875 0.40625 Z M 21.046875 0.40625 "/></g></g><g style="fill:rgb(79.60968%,35.688782%,23.139954%);fill-opacity:1;"><g transform="translate(140.692106, 80.354145)"><path style="stroke:none;" d="M 20.140625 -18.09375 L 11.65625 -10.28125 L 11.65625 0 L 6.78125 0 L 6.78125 -50.84375 L 11.65625 -50.84375 L 11.65625 -16.375 L 33.171875 -36.046875 L 39.203125 -36.046875 L 23.78125 -21.3125 L 40.640625 0 L 34.671875 0 Z M 20.140625 -18.09375 "/></g></g><g style="fill:rgb(79.60968%,35.688782%,23.139954%);fill-opacity:1;"><g transform="translate(183.869401, 80.354145)"><path style="stroke:none;" d="M 6.78125 -36.046875 L 11.65625 -36.046875 L 11.65625 0 L 6.78125 0 Z M 9.25 -43.921875 C 8.25 -43.921875 7.40625 -44.265625 6.71875 -44.953125 C 6.03125 -45.640625 5.6875 -46.460938 5.6875 -47.421875 C 5.6875 -48.335938 6.03125 -49.132812 6.71875 -49.8125 C 7.40625 -50.5 8.25 -50.84375 9.25 -50.84375 C 10.257812 -50.84375 11.101562 -50.507812 11.78125 -49.84375 C 12.46875 -49.1875 12.8125 -48.398438 12.8125 -47.484375 C 12.8125 -46.484375 12.46875 -45.640625 11.78125 -44.953125 C 11.101562 -44.265625 10.257812 -43.921875 9.25 -43.921875 Z M 9.25 -43.921875 "/></g></g><g style="fill:rgb(79.60968%,35.688782%,23.139954%);fill-opacity:1;"><g transform="translate(204.293025, 80.354145)"><path style="stroke:none;" d="M 6.78125 -50.84375 L 11.65625 -50.84375 L 11.65625 0 L 6.78125 0 Z M 6.78125 -50.84375 "/></g></g><g style="fill:rgb(79.60968%,35.688782%,23.139954%);fill-opacity:1;"><g transform="translate(224.71665, 80.354145)"><path style="stroke:none;" d="M 6.78125 -50.84375 L 11.65625 -50.84375 L 11.65625 0 L 6.78125 0 Z M 6.78125 -50.84375 "/></g></g><g style="fill:rgb(79.60968%,35.688782%,23.139954%);fill-opacity:1;"><g transform="translate(245.140274, 80.354145)"><path style="stroke:none;" d=""/></g></g><g style="fill:rgb(79.60968%,35.688782%,23.139954%);fill-opacity:1;"><g transform="translate(265.084161, 80.354145)"><path style="stroke:none;" d="M 27.140625 0.40625 C 20.921875 0.40625 16.078125 -1.375 12.609375 -4.9375 C 9.140625 -8.5 7.40625 -13.679688 7.40625 -20.484375 L 7.40625 -47.96875 L 12.46875 -47.96875 L 12.46875 -20.703125 C 12.46875 -15.117188 13.722656 -10.957031 16.234375 -8.21875 C 18.753906 -5.476562 22.390625 -4.109375 27.140625 -4.109375 C 31.929688 -4.109375 35.582031 -5.476562 38.09375 -8.21875 C 40.613281 -10.957031 41.875 -15.117188 41.875 -20.703125 L 41.875 -47.96875 L 46.8125 -47.96875 L 46.8125 -20.484375 C 46.8125 -13.679688 45.082031 -8.5 41.625 -4.9375 C 38.175781 -1.375 33.347656 0.40625 27.140625 0.40625 Z M 27.140625 0.40625 "/></g></g><g style="fill:rgb(79.60968%,35.688782%,23.139954%);fill-opacity:1;"><g transform="translate(321.351677, 80.354145)"><path style="stroke:none;" d="M 25.359375 -36.328125 C 28.734375 -36.328125 31.789062 -35.5625 34.53125 -34.03125 C 37.28125 -32.5 39.429688 -30.335938 40.984375 -27.546875 C 42.535156 -24.765625 43.3125 -21.59375 43.3125 -18.03125 C 43.3125 -14.414062 42.535156 -11.210938 40.984375 -8.421875 C 39.429688 -5.640625 37.296875 -3.484375 34.578125 -1.953125 C 31.859375 -0.421875 28.785156 0.34375 25.359375 0.34375 C 22.429688 0.34375 19.789062 -0.257812 17.4375 -1.46875 C 15.082031 -2.6875 13.15625 -4.457031 11.65625 -6.78125 L 11.65625 13.296875 L 6.78125 13.296875 L 6.78125 -36.046875 L 11.4375 -36.046875 L 11.4375 -28.921875 C 12.90625 -31.296875 14.835938 -33.125 17.234375 -34.40625 C 19.628906 -35.6875 22.335938 -36.328125 25.359375 -36.328125 Z M 25.015625 -3.96875 C 27.523438 -3.96875 29.804688 -4.550781 31.859375 -5.71875 C 33.921875 -6.882812 35.535156 -8.539062 36.703125 -10.6875 C 37.867188 -12.832031 38.453125 -15.28125 38.453125 -18.03125 C 38.453125 -20.769531 37.867188 -23.203125 36.703125 -25.328125 C 35.535156 -27.453125 33.921875 -29.109375 31.859375 -30.296875 C 29.804688 -31.484375 27.523438 -32.078125 25.015625 -32.078125 C 22.453125 -32.078125 20.15625 -31.484375 18.125 -30.296875 C 16.09375 -29.109375 14.492188 -27.453125 13.328125 -25.328125 C 12.160156 -23.203125 11.578125 -20.769531 11.578125 -18.03125 C 11.578125 -15.28125 12.160156 -12.832031 13.328125 -10.6875 C 14.492188 -8.539062 16.09375 -6.882812 18.125 -5.71875 C 20.15625 -4.550781 22.453125 -3.96875 25.015625 -3.96875 Z M 25.015625 -3.96875 "/></g></g></g></svg>